<?xml version="1.0" standalone="no"?>
<!DOCTYPE svg PUBLIC "-//W3C//DTD SVG 20010904//EN"
 "http://www.w3.org/TR/2001/REC-SVG-20010904/DTD/svg10.dtd">
<svg version="1.0" xmlns="http://www.w3.org/2000/svg"
 width="1254.000000pt" height="1254.000000pt" viewBox="0 0 1254.000000 1254.000000"
 preserveAspectRatio="xMidYMid meet">

<g transform="translate(0.000000,1254.000000) scale(0.100000,-0.100000)"
fill="#000000" stroke="none">
<path d="M6040 11914 c-332 -22 -608 -56 -843 -104 -908 -184 -1697 -561
-2392 -1144 -1076 -904 -1776 -2105 -2000 -3436 -57 -338 -69 -490 -69 -870
-1 -373 6 -476 50 -765 105 -690 360 -1410 706 -1993 109 -184 296 -460 410
-606 414 -531 949 -1013 1498 -1350 1303 -799 2858 -1026 4305 -630 795 219
1508 596 2135 1130 154 131 491 469 624 625 457 538 803 1142 1039 1814 221
628 329 1352 298 1993 -57 1163 -436 2199 -1150 3142 -554 733 -1180 1253
-1986 1650 -132 65 -303 143 -380 173 -484 189 -1008 310 -1550 357 -125 11
-599 21 -695 14z m720 -150 c1004 -85 1926 -442 2740 -1060 474 -359 902 -819
1257 -1349 872 -1303 1137 -2858 742 -4349 -336 -1267 -1134 -2387 -2235
-3138 -527 -360 -1200 -648 -1826 -782 -478 -103 -778 -132 -1252 -123 -825
15 -1570 198 -2308 567 -1084 541 -2000 1484 -2510 2581 -524 1127 -647 2300
-362 3467 193 790 533 1484 1042 2127 803 1013 1898 1709 3077 1955 575 119
1078 152 1635 104z"/>
<path d="M6005 11723 c-22 -1 -103 -7 -180 -13 -705 -54 -1451 -276 -2050
-609 -496 -277 -849 -543 -1245 -941 -737 -738 -1201 -1549 -1459 -2550 -69
-267 -102 -452 -138 -770 -27 -237 -24 -747 6 -1019 34 -313 86 -573 181 -900
302 -1043 922 -1976 1790 -2698 490 -406 1102 -741 1734 -948 336 -110 676
-183 1056 -227 169 -19 247 -22 580 -23 340 0 408 3 580 23 1178 139 2204 615
3054 1415 548 516 957 1100 1273 1817 371 844 511 1827 392 2750 -119 922
-475 1784 -1052 2550 -545 723 -1144 1224 -1937 1621 -603 302 -1259 474
-1980 519 -150 9 -506 11 -605 3z m719 -38 c517 -42 1004 -154 1476 -339 186
-73 565 -261 745 -368 405 -243 696 -469 1015 -788 448 -447 790 -921 1080
-1495 369 -731 551 -1492 552 -2310 0 -460 -43 -823 -152 -1270 -192 -784
-597 -1574 -1125 -2190 -590 -689 -1306 -1204 -2110 -1517 -902 -351 -1790
-451 -2733 -307 -533 81 -1041 245 -1562 505 -552 275 -1042 640 -1477 1100
-835 883 -1333 1945 -1475 3149 -20 175 -17 842 5 1025 88 722 286 1358 607
1950 285 524 595 937 1011 1345 532 522 1067 878 1709 1140 499 204 1043 332
1585 374 189 14 649 12 849 -4z"/>
<path d="M6205 11559 c-73 -79 -124 -156 -125 -185 0 -7 -25 -13 -60 -16 -46
-3 -66 -10 -86 -29 -35 -33 -54 -71 -54 -112 0 -33 -1 -35 -48 -41 -105 -14
-165 -94 -166 -221 -1 -69 -2 -71 -43 -111 -48 -47 -57 -84 -20 -84 36 0 125
-49 148 -81 62 -87 30 -192 -61 -201 -63 -6 -47 -59 31 -98 20 -11 73 -28 119
-40 149 -38 190 -70 252 -195 22 -44 55 -98 72 -120 18 -22 51 -68 75 -102 23
-35 43 -63 45 -63 2 0 17 21 32 48 15 26 51 79 80 117 28 39 66 99 84 135 56
114 100 146 242 179 140 33 188 60 188 108 0 24 -4 27 -53 37 -35 8 -67 59
-67 107 0 68 73 143 151 155 21 4 46 12 55 18 15 12 15 15 0 44 -9 17 -30 42
-47 54 -27 20 -30 27 -25 59 9 54 -10 137 -40 176 -35 46 -79 72 -136 79 l-48
7 0 40 c0 79 -66 137 -158 137 -34 0 -38 3 -55 44 -14 35 -124 169 -190 232
-9 8 -32 -11 -92 -77z m210 -203 c14 -28 25 -62 25 -76 0 -26 1 -26 58 -22 51
3 59 1 81 -22 25 -27 32 -69 19 -117 -7 -25 -7 -25 55 -25 112 -1 171 -54 164
-149 -2 -27 -7 -57 -11 -66 -5 -12 3 -20 34 -34 56 -25 67 -41 34 -49 -14 -4
-43 -18 -65 -31 -108 -69 -131 -216 -48 -310 34 -38 33 -39 -62 -50 -70 -8
-165 -52 -211 -98 -19 -19 -51 -63 -71 -98 -20 -35 -56 -93 -81 -128 l-46 -65
0 62 c0 52 6 72 37 129 31 56 38 78 38 126 0 54 6 69 20 47 11 -17 48 -11 72
12 27 25 31 79 7 102 -18 18 -55 21 -71 5 -19 -19 -26 45 -9 80 18 33 45 46
82 37 31 -8 64 9 64 33 0 12 12 20 38 27 30 7 37 13 37 34 0 43 -76 64 -142
39 -71 -27 -142 -135 -144 -219 0 -41 -1 -43 -10 -20 -16 38 -3 114 28 171 42
79 185 190 240 188 14 0 13 -2 -5 -10 -14 -5 -20 -13 -16 -20 5 -8 0 -10 -14
-7 -22 6 -94 -33 -121 -66 -10 -12 1 -9 37 10 35 18 65 26 94 25 24 -1 60 -3
82 -3 32 -2 44 4 68 31 16 18 28 37 26 43 -5 13 -81 38 -115 38 -14 0 -23 6
-23 15 0 18 4 18 -56 0 -28 -8 -61 -26 -74 -40 -34 -36 -40 -31 -23 17 9 26
13 69 12 109 -3 50 1 72 14 93 33 49 -2 62 -52 20 l-31 -26 -2 69 c0 37 -3 53
-5 35 l-4 -34 -29 39 c-16 21 -30 41 -30 44 0 10 44 5 53 -6 5 -6 7 -4 4 5 -2
8 -10 14 -16 12 -7 -1 -9 2 -6 8 4 6 0 19 -8 28 -8 9 -22 35 -31 56 l-16 39
-23 -41 c-56 -103 -67 -126 -53 -108 14 17 16 18 22 2 6 -15 7 -15 20 1 28 37
13 3 -21 -47 -19 -29 -35 -63 -35 -77 l0 -25 -31 26 c-31 27 -69 35 -69 15 0
-6 9 -24 20 -40 16 -22 19 -33 10 -48 -14 -28 -13 -79 5 -137 8 -27 15 -51 15
-53 0 -1 -16 11 -35 27 -19 17 -59 38 -88 48 -52 16 -56 16 -93 -2 -29 -14
-39 -25 -38 -41 0 -19 -3 -22 -23 -17 -14 4 -23 2 -23 -6 0 -6 5 -8 12 -4 7 4
8 3 4 -4 -12 -20 12 -50 50 -62 28 -10 46 -9 80 0 57 16 101 4 169 -48 90 -68
131 -189 90 -262 -13 -23 -13 -21 -8 31 6 61 -18 132 -60 177 -32 35 -91 62
-132 62 -43 0 -95 -25 -95 -45 0 -17 38 -45 62 -45 11 0 18 -7 18 -18 0 -30
19 -40 65 -34 37 4 47 1 69 -21 25 -25 32 -59 20 -91 -5 -13 -10 -14 -20 -5
-39 32 -97 -25 -79 -78 14 -38 58 -62 85 -45 11 6 21 12 22 12 2 0 3 -28 3
-63 0 -51 6 -71 30 -112 22 -37 31 -67 35 -117 3 -38 2 -68 -1 -68 -6 0 -80
111 -130 195 -69 116 -154 168 -313 190 l-49 7 26 24 c64 60 78 154 36 239
-24 49 -83 101 -126 111 -34 9 -28 22 22 46 33 16 44 26 39 38 -4 8 -9 36 -11
62 -10 89 58 152 164 152 l51 0 -5 52 c-3 30 -1 60 7 73 17 33 73 54 115 42
33 -9 33 -8 40 27 10 52 31 88 94 163 l56 67 52 -57 c29 -31 64 -78 78 -105z
m-115 -70 c0 -2 -7 -7 -16 -10 -8 -3 -12 -2 -9 4 6 10 25 14 25 6z m14 -181
c10 -24 19 -70 22 -102 l4 -58 -14 50 c-7 28 -14 46 -15 40 -2 -12 -21 16 -21
30 0 6 5 3 10 -5 5 -8 10 -10 10 -4 0 6 -8 18 -18 28 -18 15 -19 13 -31 -66
-11 -71 -10 -94 3 -157 21 -96 14 -104 -9 -10 -26 103 -24 193 4 252 13 26 27
47 31 47 4 0 15 -20 24 -45z m13 -207 c-3 -7 -5 -2 -5 12 0 14 2 19 5 13 2 -7
2 -19 0 -25z m-237 -69 l25 -20 -32 16 c-18 8 -33 18 -33 20 0 10 16 4 40 -16z
m217 -21 c-3 -8 -6 -5 -6 6 -1 11 2 17 5 13 3 -3 4 -12 1 -19z"/>
<path d="M5931 11581 c-13 -24 8 -55 34 -50 28 6 42 34 26 53 -18 22 -48 20
-60 -3z"/>
<path d="M6612 11588 c-18 -18 -14 -46 8 -58 28 -15 65 22 50 50 -12 22 -40
26 -58 8z"/>
<path d="M5755 11574 c-19 -20 -16 -43 8 -58 37 -23 77 35 41 61 -23 17 -29
16 -49 -3z"/>
<path d="M6795 11574 c-19 -20 -16 -43 8 -58 37 -23 77 35 41 61 -23 17 -29
16 -49 -3z"/>
<path d="M5582 11558 c-25 -25 -6 -68 30 -68 9 0 22 9 28 19 13 25 13 27 -6
45 -19 19 -36 20 -52 4z"/>
<path d="M6972 11558 c-25 -25 -6 -68 30 -68 9 0 22 9 28 19 13 25 13 27 -6
45 -19 19 -36 20 -52 4z"/>
<path d="M5413 11533 c-22 -8 -16 -61 7 -68 39 -12 66 35 38 63 -13 13 -24 14
-45 5z"/>
<path d="M7148 11529 c-30 -17 -16 -69 18 -69 14 0 44 27 44 40 0 10 -29 40
-38 40 -4 0 -15 -5 -24 -11z"/>
<path d="M5242 11498 c-28 -28 -1 -75 38 -63 33 11 21 75 -15 75 -6 0 -16 -5
-23 -12z"/>
<path d="M7312 11498 c-25 -25 -6 -68 30 -68 9 0 22 9 28 19 13 25 13 27 -6
45 -19 19 -36 20 -52 4z"/>
<path d="M5077 11458 c-25 -13 -22 -55 4 -63 28 -9 53 16 45 43 -8 25 -27 33
-49 20z"/>
<path d="M7489 11444 c-9 -11 -10 -20 -2 -32 15 -24 44 -27 59 -7 28 38 -27
75 -57 39z"/>
<path d="M5940 11424 c-64 -21 -100 -37 -100 -44 0 -5 21 0 46 12 26 11 68 21
95 22 27 0 49 4 49 9 0 8 -66 8 -90 1z"/>
<path d="M6665 11403 c51 -19 66 -20 49 -3 -5 5 -29 12 -54 15 l-45 6 50 -18z"/>
<path d="M5649 11342 c-75 -20 -137 -57 -170 -102 -26 -35 -39 -38 -39 -10 0
11 -6 23 -14 26 -20 8 -93 -32 -112 -61 -20 -30 -34 -32 -34 -5 0 36 -72 55
-94 24 -20 -26 -87 -29 -151 -5 -32 12 -59 20 -61 18 -2 -2 26 -22 62 -46 110
-72 174 -170 214 -326 71 -278 -69 -585 -307 -675 -135 -51 -238 -46 -484 21
-81 22 -175 42 -210 45 -123 12 -249 -29 -333 -106 -54 -50 -79 -88 -112 -172
-27 -69 -29 -80 -11 -57 32 41 165 153 206 174 149 75 331 46 331 -52 0 -26 4
-33 19 -33 44 0 60 72 25 111 -27 30 -65 48 -126 58 l-53 9 48 1 c28 1 80 -10
125 -25 176 -59 262 -174 262 -351 0 -94 -20 -143 -78 -195 -49 -44 -95 -55
-154 -37 -74 24 -113 113 -68 154 18 17 25 17 57 6 29 -11 37 -11 44 0 14 22
11 36 -15 66 -20 23 -32 28 -69 28 -49 0 -85 -21 -121 -68 -28 -38 -34 -142
-11 -188 47 -94 140 -146 240 -136 135 14 237 121 269 286 l14 66 1 -47 c3
-109 67 -138 87 -39 l7 32 33 -40 c46 -53 133 -85 160 -58 4 4 3 7 -3 7 -22 0
-66 58 -116 154 -41 80 -68 117 -132 181 -45 45 -110 97 -148 119 -37 21 -66
41 -63 43 9 10 234 -91 358 -160 247 -138 345 -171 508 -170 77 0 121 6 168
21 141 46 278 157 328 267 14 30 30 57 35 60 14 9 11 52 -6 69 -8 8 -15 20
-15 26 0 8 -5 7 -15 -2 -8 -7 -21 -19 -30 -26 -19 -16 -19 -46 1 -66 14 -14
13 -21 -12 -67 -53 -96 -169 -181 -295 -214 -71 -19 -223 -19 -309 1 -45 10
-136 49 -257 110 -188 93 -188 94 -128 86 95 -11 200 -8 218 6 14 12 22 9 54
-17 65 -52 129 -74 225 -79 76 -4 92 -1 141 21 103 47 147 151 95 227 -24 36
-52 46 -94 36 -28 -7 -42 -49 -24 -71 19 -23 3 -63 -33 -85 -32 -20 -93 -28
-83 -11 8 12 -35 49 -73 62 l-33 12 25 21 c14 11 28 31 32 44 8 27 -18 72 -41
72 -9 0 -14 3 -12 8 57 109 66 164 49 282 -7 45 -10 84 -8 86 3 3 19 -9 36
-26 20 -21 39 -30 53 -28 21 3 23 8 20 48 -2 25 -12 63 -22 85 -17 34 -18 40
-5 48 22 12 18 39 -10 81 l-24 36 33 0 c35 0 79 28 97 62 9 16 7 26 -10 49
-20 27 -20 28 -1 34 26 8 67 58 92 112 25 53 96 118 163 149 l50 23 -45 0
c-25 0 -75 -8 -111 -17z m-519 -1131 c0 -5 -7 -12 -16 -15 -14 -5 -15 -4 -4 9
14 17 20 19 20 6z m-1280 -225 c0 -2 -8 -10 -17 -17 -16 -13 -17 -12 -4 4 13
16 21 21 21 13z"/>
<path d="M6800 11356 c0 -3 22 -15 50 -27 52 -22 132 -99 152 -146 22 -51 49
-83 86 -102 30 -16 34 -21 20 -26 -12 -5 -18 -18 -18 -39 0 -40 34 -75 82 -82
l34 -6 -24 -48 c-24 -49 -22 -76 5 -66 8 3 13 3 11 -1 -27 -53 -42 -96 -46
-135 -4 -44 -3 -48 17 -48 13 0 36 14 53 30 17 17 32 29 35 27 2 -3 -1 -35 -8
-72 -15 -90 -8 -198 19 -257 15 -35 17 -48 8 -48 -20 0 -46 -34 -46 -59 0 -13
14 -36 31 -52 24 -23 27 -29 13 -29 -26 0 -104 -49 -104 -65 0 -35 -99 -1
-118 39 -8 18 -7 29 5 45 33 48 -12 96 -75 79 -61 -16 -92 -110 -58 -177 21
-39 77 -87 121 -101 23 -8 71 -11 124 -8 99 5 172 35 246 100 l43 38 39 -22
c30 -19 52 -23 109 -22 39 1 83 4 97 8 42 10 32 -10 -14 -28 -23 -10 -105 -48
-183 -86 -157 -77 -247 -105 -363 -115 -197 -17 -408 86 -480 234 l-22 44 21
27 c24 33 13 65 -25 72 -48 9 -76 -43 -44 -81 8 -9 20 -32 27 -51 75 -194 322
-322 565 -292 124 16 191 40 410 153 186 95 372 176 381 166 3 -3 -23 -20 -58
-38 -41 -22 -95 -65 -153 -124 -75 -74 -100 -108 -144 -193 -30 -57 -65 -111
-78 -121 -34 -27 -29 -34 19 -27 53 9 103 39 125 77 22 37 28 37 29 -1 1 -33
19 -60 40 -60 18 0 36 36 44 85 l7 40 7 -40 c23 -121 60 -187 131 -238 58 -40
98 -55 154 -56 63 -1 115 17 162 58 108 92 105 263 -5 322 -37 19 -50 21 -82
13 -45 -11 -79 -52 -69 -83 7 -23 34 -28 52 -10 19 19 57 6 71 -24 12 -24 11
-32 -5 -64 -27 -55 -65 -78 -127 -78 -112 0 -186 93 -186 234 1 125 54 226
155 296 57 39 188 85 237 84 29 -1 25 -3 -29 -20 -70 -22 -113 -63 -113 -109
0 -32 21 -53 47 -48 12 2 17 11 15 25 -9 63 64 98 190 91 105 -6 174 -38 259
-120 33 -32 64 -58 69 -58 5 0 16 -12 25 -27 15 -27 16 -27 9 -3 -42 160 -133
264 -274 312 -87 30 -223 29 -330 -2 -310 -90 -382 -98 -500 -57 -171 61 -283
186 -330 373 -65 252 25 520 218 649 75 50 73 53 -12 25 -78 -26 -105 -25
-137 6 -25 24 -28 25 -62 11 -19 -9 -38 -25 -42 -37 -7 -21 -8 -21 -37 14 -16
20 -44 44 -61 52 -29 15 -31 15 -44 -2 -7 -10 -11 -24 -9 -31 10 -24 -6 -13
-46 32 -51 58 -100 83 -174 88 -32 3 -76 8 -96 12 -21 4 -38 5 -38 1z m680
-191 c-14 -8 -29 -14 -35 -14 -5 0 1 6 15 14 14 8 30 14 35 14 6 0 -1 -6 -15
-14z m-4 -960 c10 -8 15 -14 9 -14 -5 0 -19 6 -29 14 -11 8 -15 15 -10 15 6 0
19 -7 30 -15z"/>
<path d="M4505 11286 c-212 -42 -433 -160 -578 -310 -66 -68 -168 -217 -193
-282 -14 -38 -18 -41 -35 -31 -14 9 -22 7 -38 -7 -19 -17 -21 -17 -53 7 -58
44 -118 47 -155 8 -10 -11 -36 -24 -58 -30 -47 -12 -87 -50 -109 -103 -17 -40
-21 -78 -8 -78 4 0 16 14 26 31 30 51 115 74 183 48 35 -13 90 -65 110 -104
88 -166 61 -484 -55 -655 -72 -106 -242 -210 -351 -214 l-46 -1 -6 141 c-5
119 -9 148 -29 188 -23 49 -57 73 -86 62 -14 -5 -16 -17 -11 -79 2 -39 16
-108 30 -152 15 -43 25 -81 23 -82 -8 -8 -87 123 -146 241 -50 101 -73 136
-99 154 -19 12 -40 21 -47 18 -7 -3 -44 9 -84 25 -40 16 -76 29 -81 29 -4 0
-1 -17 8 -37 18 -42 44 -164 37 -174 -6 -10 80 -70 166 -115 47 -25 99 -64
143 -107 38 -38 67 -70 65 -72 -2 -2 -38 14 -80 35 -170 85 -295 69 -213 -29
31 -36 91 -57 200 -71 137 -17 145 -20 152 -47 10 -43 -15 -125 -59 -188 -89
-130 -184 -205 -320 -252 -75 -25 -96 -28 -218 -28 -106 0 -146 4 -189 19 -94
32 -171 123 -171 201 0 40 33 109 61 128 30 22 19 31 -28 22 -50 -9 -108 -68
-123 -124 -6 -24 -21 -52 -32 -61 -47 -37 -14 -154 56 -200 33 -21 35 -25 19
-32 -10 -4 -54 -21 -98 -38 -227 -85 -448 -308 -549 -552 -92 -224 -103 -425
-34 -675 32 -119 32 -149 -3 -182 -28 -26 -23 -82 9 -96 12 -5 22 -13 22 -16
0 -4 -21 -27 -46 -52 -36 -36 -45 -52 -42 -74 3 -24 7 -28 30 -26 16 1 28 0
28 -2 0 -3 -25 -20 -56 -40 -47 -30 -55 -40 -50 -59 3 -12 -3 -45 -14 -73 -11
-28 -22 -82 -25 -120 l-5 -68 21 57 c26 73 79 132 154 172 37 20 69 47 84 69
23 36 25 36 38 17 33 -47 110 3 120 78 l5 41 27 -20 c15 -11 43 -22 64 -26 30
-4 37 -3 37 11 0 18 11 21 26 7 12 -13 151 -51 158 -43 14 13 4 51 -19 75
l-26 25 83 -5 c63 -4 92 -2 122 11 45 19 49 19 41 6 -11 -17 15 -40 45 -40 19
0 36 10 53 29 l24 29 16 -34 c13 -25 23 -34 42 -34 15 0 25 -6 25 -15 0 -22
32 -35 54 -23 17 10 18 8 12 -18 -21 -87 -71 -131 -119 -105 -34 18 -60 11
-75 -21 -30 -64 45 -138 126 -124 187 30 231 366 70 538 -23 25 -28 36 -20 48
31 49 38 186 16 322 l-5 33 15 -30 c8 -16 34 -73 57 -125 148 -337 165 -399
156 -570 -8 -165 -60 -294 -157 -391 -64 -64 -160 -112 -160 -80 0 16 -38 23
-60 11 -13 -7 -20 -21 -20 -38 0 -16 -4 -33 -10 -40 -7 -8 -7 -9 1 -3 6 5 23
4 39 -2 25 -9 33 -8 52 10 13 11 36 23 51 27 106 25 235 182 291 354 39 117
37 291 -5 428 -11 38 -61 155 -111 259 -95 200 -158 352 -158 382 0 10 21 -25
46 -77 39 -80 61 -109 133 -181 73 -73 103 -94 198 -142 62 -32 115 -62 118
-67 11 -18 25 -11 25 13 -1 39 -38 107 -70 125 -37 21 -38 32 -2 32 37 0 65
21 60 46 -2 14 -14 20 -50 24 -65 8 -68 16 -7 23 166 20 284 178 250 333 -24
106 -134 187 -230 169 -83 -15 -139 -83 -127 -150 10 -49 50 -74 83 -50 14 11
16 16 6 26 -17 17 -16 34 3 53 38 39 113 -1 133 -72 22 -76 -37 -174 -125
-208 -62 -24 -185 -16 -244 14 -86 45 -149 121 -186 224 -16 46 -11 48 23 8
19 -23 33 -30 62 -30 65 0 86 49 29 65 -51 15 -78 72 -78 166 0 42 7 95 15
120 23 66 84 147 156 209 35 30 56 51 47 48 -9 -4 -35 -12 -56 -18 -58 -15
-151 -88 -194 -151 -86 -124 -107 -272 -67 -469 34 -169 33 -357 -3 -456 -86
-243 -300 -376 -554 -345 -155 19 -280 92 -358 210 -42 63 -76 137 -76 165 0
6 17 -22 36 -63 47 -97 113 -162 208 -207 144 -68 290 -64 442 14 121 62 215
237 171 318 -9 16 -19 42 -22 59 -9 43 -82 111 -134 125 -106 28 -211 -40
-211 -138 0 -32 6 -49 25 -67 29 -30 35 -31 67 -5 l25 19 22 -23 c70 -75 3
-229 -117 -272 -50 -18 -137 -17 -199 1 -66 20 -159 89 -207 153 -38 53 -79
143 -89 200 -8 43 9 33 18 -11 20 -89 110 -198 198 -237 47 -22 121 -26 164
-9 66 25 104 89 84 142 -12 32 -24 34 -58 7 -33 -26 -104 -26 -158 -1 -80 37
-160 138 -192 240 -23 78 -24 253 0 301 12 24 15 27 11 10 -13 -54 -16 -187
-5 -226 6 -23 21 -56 33 -75 28 -42 108 -84 143 -75 35 9 75 47 77 75 3 21 -3
26 -32 32 -96 20 -137 161 -90 312 18 59 104 206 129 221 15 9 14 4 -4 -30
-34 -66 -27 -164 12 -164 10 -1 27 -15 38 -33 11 -17 28 -33 38 -35 14 -3 17
4 17 45 0 129 68 280 169 376 116 109 221 148 457 168 233 20 350 65 465 179
36 36 80 90 98 120 18 30 29 44 25 30 -11 -41 -68 -122 -122 -175 -111 -108
-242 -163 -454 -190 -149 -19 -186 -29 -258 -65 -157 -79 -270 -258 -270 -425
0 -144 73 -235 189 -235 42 0 56 5 85 30 59 53 57 130 -4 130 -33 0 -84 39
-105 81 -22 41 -19 135 6 189 58 129 157 185 381 216 132 18 234 50 338 105
93 50 52 14 -47 -42 -146 -81 -212 -200 -169 -303 28 -67 109 -99 130 -51 7
16 18 20 53 20 35 0 49 5 64 24 27 33 25 61 -5 61 -36 0 -76 39 -82 81 -11 66
26 127 142 235 93 86 108 105 145 182 48 102 79 214 79 289 0 73 15 67 63 -27
113 -224 81 -568 -59 -635 -25 -12 -39 -13 -53 -5 -28 14 -31 13 -31 -14 0
-27 20 -51 50 -61 24 -8 84 10 100 31 17 20 30 18 30 -5 0 -37 20 -32 67 15
65 67 87 122 87 214 0 41 -3 93 -7 115 -6 34 -5 37 6 21 68 -104 123 -144 204
-151 27 -3 63 -9 81 -14 17 -5 32 -7 33 -3 4 36 -5 128 -17 172 -15 53 -68
118 -118 145 -13 8 3 10 65 11 100 0 151 13 215 57 50 33 82 86 57 94 -10 4
-9 10 2 26 7 12 19 44 26 70 19 79 -14 121 -66 83 -18 -13 -18 -17 -5 -41 27
-50 -28 -114 -145 -167 -41 -18 -67 -22 -150 -22 -85 0 -113 5 -190 31 -49 17
-108 42 -131 55 -46 27 -94 63 -94 72 0 3 35 6 78 6 238 0 347 38 443 153 100
122 180 175 244 163 46 -9 85 -48 85 -86 0 -36 25 -41 58 -10 16 15 22 32 22
64 0 30 5 46 15 50 22 8 18 59 -7 91 -43 55 -122 69 -194 34 -62 -29 -112 -84
-173 -188 -30 -50 -74 -111 -98 -135 -44 -45 -121 -96 -145 -96 -7 0 10 13 38
29 148 85 256 286 304 567 31 184 61 257 134 321 76 67 166 79 244 31 39 -24
54 -49 61 -103 5 -31 12 -43 35 -54 25 -12 33 -11 62 2 93 45 97 174 7 259
-113 108 -347 76 -482 -67 -83 -87 -115 -169 -150 -375 -41 -241 -71 -321
-163 -432 -40 -48 -125 -110 -168 -122 -14 -4 -2 6 25 22 75 45 157 136 198
222 53 111 68 181 97 451 17 154 70 273 156 349 74 64 223 119 326 120 45 0
55 13 33 46 -23 35 -73 54 -142 54 l-58 1 23 18 c12 11 22 28 22 40 0 33 135
95 221 99 123 7 215 -43 228 -125 6 -35 9 -38 43 -41 29 -2 43 3 68 25 65 59
45 180 -40 242 -46 33 -135 56 -187 48 -18 -3 -33 -2 -33 3 0 16 90 22 166 11
91 -13 154 -44 227 -111 61 -56 127 -171 127 -221 0 -42 -18 -80 -40 -86 -48
-13 -3 -77 54 -77 90 0 145 94 125 216 -23 143 -128 258 -291 319 -52 20 -52
20 -13 15 60 -8 177 -70 240 -128 115 -105 160 -207 153 -348 -5 -99 -26 -148
-87 -203 -53 -48 -108 -64 -161 -48 -50 15 -79 54 -62 82 36 58 -11 114 -91
106 -52 -5 -87 -30 -114 -82 -20 -38 -19 -121 2 -171 19 -47 79 -110 111 -118
15 -4 24 -14 24 -26 0 -41 116 -44 198 -4 176 86 281 346 228 564 -34 139 -91
232 -188 305 -32 24 -53 45 -47 47 5 2 -34 16 -89 31 -121 34 -257 42 -357 23z
m-110 -76 c-27 -12 -43 -12 -25 0 8 5 22 9 30 9 10 0 8 -3 -5 -9z m-75 -25
c-46 -18 -64 -17 -25 0 17 8 37 14 45 14 8 0 -1 -7 -20 -14z m617 -357 c-3 -8
-6 -5 -6 6 -1 11 2 17 5 13 3 -3 4 -12 1 -19z m-957 7 c0 -2 -10 -9 -22 -15
-22 -11 -22 -10 -4 4 21 17 26 19 26 11z m838 -170 c-3 -3 -9 2 -12 12 -6 14
-5 15 5 6 7 -7 10 -15 7 -18z m-121 -132 c-3 -10 -5 -2 -5 17 0 19 2 27 5 18
2 -10 2 -26 0 -35z m-1805 -728 c12 -16 -16 6 -61 50 -45 44 -87 89 -93 100
-13 26 127 -111 154 -150z m118 -718 c0 -2 -10 -12 -22 -23 l-23 -19 19 23
c18 21 26 27 26 19z m-50 -50 c0 -2 -10 -12 -22 -23 l-23 -19 19 23 c18 21 26
27 26 19z m-935 -1065 c-6 -5 -23 -14 -40 -20 l-30 -12 24 20 c13 11 30 20 39
20 9 0 12 -3 7 -8z m656 -19 c13 -16 12 -17 -3 -4 -10 7 -18 15 -18 17 0 8 8
3 21 -13z m-913 -235 c-5 -14 -46 -20 -63 -10 -5 3 1 9 15 13 39 11 52 10 48
-3z m9 -30 c-7 -4 -34 -8 -62 -8 -27 0 -55 4 -61 8 -7 4 21 7 61 7 40 0 68 -3
62 -7z"/>
<path d="M7825 11290 c-51 -10 -177 -48 -161 -49 5 -1 -18 -19 -52 -40 -211
-137 -286 -465 -162 -711 63 -124 169 -200 280 -200 54 0 103 20 88 36 -5 4
16 19 44 33 170 85 148 361 -28 361 -30 0 -48 -7 -68 -25 -29 -27 -32 -51 -11
-79 31 -41 -37 -92 -113 -83 -62 7 -121 51 -156 117 -75 138 -29 341 109 474
51 50 182 121 240 131 34 5 29 1 -33 -26 -185 -80 -302 -281 -248 -424 32 -82
108 -119 164 -79 27 19 29 50 3 57 -31 8 -46 70 -32 133 25 110 121 215 241
266 47 19 72 22 175 22 89 0 134 -5 173 -18 29 -10 51 -20 48 -23 -3 -3 -23 2
-45 10 -53 22 -208 10 -267 -21 -111 -57 -148 -180 -77 -254 20 -21 36 -28 65
-28 39 0 41 2 52 51 16 72 129 127 240 115 83 -8 191 -62 191 -94 0 -13 11
-32 25 -42 l25 -20 -58 0 c-73 0 -120 -22 -141 -63 l-15 -32 67 -6 c196 -19
332 -110 408 -274 36 -79 46 -132 63 -346 17 -205 68 -335 176 -445 33 -34 78
-71 100 -82 22 -12 36 -21 32 -22 -26 -1 -111 57 -163 111 -112 118 -152 214
-184 446 -31 224 -64 307 -159 396 -29 27 -82 63 -119 80 -58 27 -78 32 -147
32 -94 0 -143 -15 -193 -59 -78 -68 -92 -175 -31 -236 54 -53 129 -35 129 32
0 42 61 102 119 118 71 19 135 -2 197 -64 64 -64 87 -123 119 -310 48 -286
136 -455 287 -556 37 -24 66 -45 64 -47 -2 -2 -18 3 -37 11 -77 32 -171 131
-224 235 -53 106 -172 201 -249 201 -42 -1 -110 -33 -130 -61 -20 -29 -21 -78
-2 -85 10 -4 14 -19 13 -46 -1 -33 4 -45 26 -64 38 -32 57 -31 57 4 0 33 31
67 77 82 66 23 162 -30 244 -136 109 -142 215 -182 467 -176 39 0 72 -2 72 -7
0 -13 -86 -70 -153 -102 -177 -82 -389 -76 -509 15 -57 44 -77 86 -55 120 12
17 13 26 4 35 -18 18 -55 13 -71 -11 -21 -30 -20 -64 5 -117 15 -34 17 -46 7
-52 -20 -12 9 -55 61 -90 68 -45 140 -62 235 -57 62 4 76 2 61 -6 -41 -24
-107 -92 -122 -125 -8 -20 -17 -74 -20 -120 -6 -80 -5 -84 13 -77 10 4 52 11
92 16 86 9 137 39 184 105 18 25 33 43 35 42 2 -2 -2 -30 -8 -63 -20 -105 13
-234 64 -253 13 -5 27 -16 30 -25 3 -8 19 -22 36 -30 25 -14 32 -14 43 -2 12
12 18 12 39 0 35 -19 76 -17 99 6 33 33 25 79 -10 58 -46 -29 -126 48 -157
151 -24 78 -23 273 1 360 25 90 84 201 108 201 4 0 8 -24 8 -52 0 -72 25 -171
60 -242 17 -33 30 -64 30 -69 0 -16 51 -78 59 -72 5 2 17 -5 27 -18 l19 -22
-22 19 c-13 11 -23 15 -23 9 0 -6 37 -43 82 -84 94 -85 134 -155 125 -216 -8
-47 -42 -83 -79 -83 -37 0 -38 -31 -2 -67 20 -20 32 -24 58 -20 26 4 34 1 42
-16 19 -44 100 -24 129 33 19 37 19 110 1 155 -20 46 -98 128 -153 161 -63 37
-48 40 28 5 36 -17 112 -39 174 -51 61 -11 136 -26 169 -32 89 -17 185 -68
233 -122 116 -132 88 -335 -48 -348 -32 -3 -34 -5 -37 -44 -6 -79 77 -137 162
-113 56 15 112 71 132 131 20 62 15 179 -12 251 -33 85 -104 178 -181 233 -83
60 -161 86 -325 109 -204 28 -321 78 -429 185 -59 58 -129 158 -129 185 0 6
14 -15 32 -45 45 -79 145 -173 228 -215 86 -43 159 -61 315 -75 166 -15 248
-34 335 -77 97 -47 183 -133 229 -226 34 -70 67 -219 58 -264 -6 -34 27 -30
55 7 12 17 28 30 35 30 40 0 45 114 8 186 l-25 49 30 -35 c100 -113 145 -218
144 -335 -2 -108 -44 -179 -116 -194 -27 -6 -33 -11 -30 -32 3 -36 56 -79 96
-79 63 0 134 69 157 153 6 23 9 82 7 133 -3 102 9 102 19 0 13 -142 -37 -304
-121 -387 -85 -85 -201 -115 -251 -65 -21 22 -26 22 -44 9 -29 -20 -28 -81 1
-118 75 -96 266 -64 360 61 22 30 51 82 64 117 25 68 32 59 10 -14 -37 -120
-126 -233 -222 -282 -180 -91 -387 -13 -401 151 -7 76 43 138 77 97 18 -22 37
-19 67 11 22 22 25 32 20 77 -4 42 -10 56 -40 83 -75 69 -177 64 -252 -11 -24
-23 -46 -56 -50 -74 -4 -17 -13 -45 -22 -61 -35 -71 38 -224 140 -294 141 -97
312 -109 471 -33 94 45 156 109 207 211 22 44 37 68 34 51 -11 -52 -68 -156
-113 -207 -193 -214 -543 -222 -743 -17 -93 94 -141 217 -156 394 l-6 80 -19
-80 c-27 -112 -30 -319 -6 -357 18 -27 18 -27 -26 -73 -65 -66 -89 -136 -90
-255 -1 -85 2 -101 27 -153 34 -68 85 -107 149 -114 74 -7 139 53 123 114 -8
33 -48 50 -79 33 -40 -21 -75 -5 -96 43 -11 23 -20 53 -20 66 0 20 2 21 15 11
18 -15 40 -1 50 31 5 14 12 18 26 14 13 -4 28 3 48 22 l29 29 22 -23 c27 -28
64 -30 86 -4 14 16 22 17 46 9 16 -6 63 -8 104 -6 41 3 74 3 74 0 0 -3 -8 -15
-19 -26 -10 -12 -22 -32 -26 -45 -7 -24 -7 -24 51 -17 31 4 77 15 102 26 54
24 52 24 52 4 0 -22 54 -12 93 16 l27 21 0 -41 c0 -74 76 -125 122 -83 10 9
18 11 18 5 0 -23 56 -75 104 -96 57 -25 99 -69 126 -131 10 -22 23 -51 29 -65
24 -53 2 113 -26 193 -23 70 -32 84 -70 110 -24 17 -43 35 -43 41 0 6 5 5 12
-2 16 -16 47 -15 54 2 9 23 -25 83 -62 111 -40 31 -41 37 -12 50 32 15 42 64
18 90 -39 42 -40 65 -8 176 25 89 30 127 35 264 6 176 -6 265 -54 400 -100
281 -282 472 -552 581 l-103 42 30 16 c42 22 82 92 82 142 -1 40 -18 74 -39
74 -6 0 -11 12 -11 26 0 63 -65 133 -137 149 -38 8 -45 -8 -12 -26 32 -17 62
-94 54 -137 -16 -86 -58 -136 -150 -179 -52 -24 -75 -28 -172 -31 -257 -9
-446 87 -561 285 -41 70 -70 167 -59 196 4 10 35 19 94 26 154 21 214 40 256
81 42 43 44 49 19 80 l-18 23 -95 -32 c-52 -17 -118 -45 -148 -61 -30 -17 -56
-28 -58 -26 -2 2 32 37 75 77 56 52 109 89 179 127 99 52 122 68 127 94 2 7 5
20 8 28 3 8 10 42 16 75 6 33 13 68 17 77 6 16 3 17 -26 12 -19 -4 -49 -13
-68 -20 -18 -8 -44 -14 -57 -14 -42 0 -99 -64 -134 -148 -32 -77 -124 -227
-156 -253 -15 -12 -16 -12 -11 1 38 94 58 182 55 240 -4 77 -22 89 -66 42 -41
-43 -55 -100 -61 -242 l-6 -125 -54 1 c-41 2 -73 12 -138 44 -205 102 -305
284 -304 555 0 141 22 228 74 297 62 82 169 111 238 65 19 -12 38 -33 44 -45
15 -33 25 -27 25 17 0 69 -66 140 -133 143 -22 1 -37 6 -37 13 0 41 -91 53
-139 17 -17 -12 -36 -22 -44 -22 -15 0 -52 -37 -59 -60 -3 -8 -15 12 -27 45
-31 84 -93 196 -145 264 -123 160 -364 316 -571 370 -92 24 -247 34 -320 21z
m-248 -342 c-3 -7 -5 -2 -5 12 0 14 2 19 5 13 2 -7 2 -19 0 -25z m310 -415
c-3 -10 -5 -4 -5 12 0 17 2 24 5 18 2 -7 2 -21 0 -30z m55 -45 c-6 -6 -7 0 -4
19 5 21 7 23 10 9 2 -10 0 -22 -6 -28z m1899 -572 c-7 -8 -49 -42 -94 -77 -56
-43 -72 -52 -52 -29 28 31 141 120 152 120 3 0 0 -6 -6 -14z m694 -1947 c14
-6 8 -7 -22 -3 -29 4 -53 1 -75 -10 l-33 -16 24 20 c24 21 72 25 106 9z m91
-75 c-6 -21 -42 -51 -52 -42 -6 7 20 68 29 68 4 0 6 -4 2 -9 -3 -5 -1 -12 5
-16 6 -4 10 7 11 27 1 18 3 25 6 15 3 -10 2 -29 -1 -43z m64 -149 c0 -5 -5 -3
-10 5 -5 8 -10 20 -10 25 0 6 5 3 10 -5 5 -8 10 -19 10 -25z m173 -62 c-7 -2
-21 -2 -30 0 -10 3 -4 5 12 5 17 0 24 -2 18 -5z"/>
<path d="M10595 7880 c-3 -5 -1 -10 4 -10 6 0 11 5 11 10 0 6 -2 10 -4 10 -3
0 -8 -4 -11 -10z"/>
<path d="M9501 10314 c-20 -27 -51 -54 -81 -69 -63 -32 -126 -105 -145 -168
-34 -116 -6 -261 71 -360 26 -34 38 -53 26 -43 -23 20 -30 10 -10 -14 7 -8 -9
5 -35 30 -49 45 -129 157 -141 196 -5 16 -2 20 19 20 21 0 27 -8 41 -48 8 -26
12 -53 8 -59 -4 -7 -3 -9 3 -6 6 4 14 0 17 -9 4 -9 8 -15 11 -12 2 2 -7 37
-21 78 -23 66 -26 86 -22 186 3 98 6 116 26 143 28 39 28 57 -3 77 -41 27 -91
0 -125 -66 -57 -113 -15 -296 101 -437 49 -61 167 -158 156 -128 -4 10 -3 21
3 25 7 4 -3 35 -27 86 -35 72 -38 86 -38 164 0 94 19 141 71 175 33 21 90 22
113 1 26 -24 49 -20 83 14 23 24 28 36 23 53 -4 12 -7 43 -6 69 2 56 -17 98
-57 127 l-29 20 -32 -45z m-307 -106 c-5 -8 -2 -9 11 -5 9 4 24 2 31 -4 11 -9
14 -8 14 1 0 8 2 11 5 9 2 -3 -7 -34 -21 -69 -14 -36 -23 -55 -20 -42 4 20 -4
27 -26 23 -5 0 -8 4 -8 9 0 6 -4 10 -9 10 -14 0 -22 -31 -15 -54 7 -21 7 -21
15 -1 6 15 8 10 8 -20 1 -22 4 -51 6 -65 3 -14 3 -19 -1 -12 -10 22 -21 13
-17 -15 3 -23 2 -25 -6 -11 -16 24 -24 100 -17 150 6 40 38 108 51 108 4 0 3
-5 -1 -12z"/>
<path d="M3014 10331 c-18 -11 -39 -30 -48 -42 -18 -26 -22 -84 -6 -94 6 -4 4
-15 -6 -30 -22 -33 -11 -71 26 -90 36 -19 56 -19 63 -1 10 25 64 30 105 8 99
-51 114 -188 37 -349 -33 -70 -34 -88 -6 -60 11 10 11 8 2 -10 -24 -47 20 -23
93 50 127 127 195 304 167 432 -21 92 -75 138 -133 114 -35 -14 -37 -43 -6
-94 39 -67 35 -232 -8 -320 -12 -26 -13 -26 -8 -5 3 14 8 67 11 117 5 75 2
102 -12 140 -21 54 -72 113 -123 144 -51 31 -83 60 -93 87 -10 27 -15 27 -55
3z m300 -137 c3 -8 2 -12 -4 -9 -6 3 -10 10 -10 16 0 14 7 11 14 -7z m56 -111
c0 21 20 23 20 2 0 -9 -7 -18 -15 -21 -11 -5 -15 -21 -15 -60 0 -41 4 -54 15
-54 21 0 19 -23 -5 -70 -24 -47 -33 -51 -24 -12 6 26 6 26 -9 7 -21 -25 -21
-21 -1 56 10 39 15 87 12 128 -4 60 -3 63 8 36 8 -19 13 -23 14 -12z m41 -73
c-9 -24 -10 -23 -10 10 -1 19 3 46 7 60 6 23 7 22 10 -10 2 -20 -1 -47 -7 -60z
m-155 -250 c-36 -54 -42 -51 -8 4 15 24 29 42 31 40 2 -2 -8 -22 -23 -44z m44
6 c0 -2 -8 -10 -17 -17 -16 -13 -17 -12 -4 4 13 16 21 21 21 13z"/>
<path d="M5962 9938 c-18 -18 -15 -33 14 -68 109 -129 464 -136 597 -12 33 32
37 77 7 87 -29 9 -53 -13 -46 -41 7 -26 -26 -54 -96 -81 -60 -23 -256 -23
-316 0 -68 26 -105 56 -98 80 10 38 -34 63 -62 35z"/>
<path d="M9290 9763 c0 -5 14 -24 31 -43 l30 -35 -27 43 c-26 41 -34 50 -34
35z"/>
<path d="M2395 9726 c-14 -14 -33 -26 -41 -26 -21 0 -84 -63 -84 -84 0 -11 9
-16 28 -16 42 -1 66 -19 119 -90 111 -149 262 -173 460 -74 49 24 77 34 63 22
-40 -33 -151 -85 -208 -97 -73 -15 -151 -14 -202 4 -57 20 -64 10 -11 -14 l43
-18 -41 1 c-22 0 -35 3 -30 7 6 3 4 11 -6 19 -12 10 -18 10 -30 0 -12 -10 -15
-10 -15 0 0 6 9 14 20 17 25 7 26 23 2 23 -26 0 -52 -31 -52 -62 0 -31 32 -73
68 -92 76 -38 176 -26 300 35 66 32 102 59 175 131 l92 91 -33 8 c-27 5 -48 0
-100 -23 -97 -44 -181 -49 -256 -15 -49 23 -60 33 -77 73 l-21 46 22 30 c26
35 21 68 -16 105 -17 17 -30 22 -42 17 -20 -8 -37 -8 -74 1 -21 6 -32 1 -53
-19z m544 -302 c-34 -37 -58 -48 -55 -27 2 9 18 25 37 35 45 24 47 23 18 -8z
m-151 -76 c-2 -7 5 -12 15 -12 26 3 3 -22 -34 -35 -37 -13 -37 -6 -1 14 15 9
18 13 7 9 -11 -3 -31 -9 -45 -11 -20 -4 -22 -2 -10 6 12 9 11 11 -10 12 -18 1
-13 4 20 14 59 17 60 17 58 3z m-130 -25 c-10 -2 -26 -2 -35 0 -10 3 -2 5 17
5 19 0 27 -2 18 -5z m-153 -39 c8 3 15 1 17 -5 2 -5 30 -13 63 -18 l60 -9 -58
-1 c-56 -1 -119 18 -133 41 -4 6 3 5 16 -2 12 -6 28 -9 35 -6z m200 -9 c-16
-8 -37 -14 -45 -14 -8 0 -1 7 15 14 17 8 37 14 45 14 8 0 2 -7 -15 -14z"/>
<path d="M9998 9720 c-33 -26 -47 -79 -24 -92 23 -13 20 -74 -5 -109 -32 -45
-89 -70 -162 -70 -75 -1 -107 6 -169 37 -46 23 -118 33 -118 15 0 -4 42 -48
93 -97 146 -142 289 -202 412 -175 84 19 134 86 105 140 -15 30 -39 33 -72 9
-38 -27 -156 -36 -239 -19 -70 15 -168 61 -194 92 l-20 23 30 -19 c75 -48 185
-85 251 -85 45 0 146 33 183 60 18 12 50 47 73 78 51 71 76 91 111 92 18 0 27
5 27 16 0 21 -54 74 -76 74 -9 0 -28 12 -41 26 -19 21 -30 25 -51 19 -37 -9
-54 -9 -73 -1 -9 4 -26 -2 -41 -14z m-303 -341 c0 -6 10 -18 23 -27 21 -13 22
-13 16 3 -8 19 -2 18 76 -11 25 -9 29 -13 14 -13 -28 -1 -36 -11 -23 -28 37
-43 -73 24 -141 87 l-55 51 45 -25 c25 -14 45 -31 45 -37z m371 -24 c-11 -8
-25 -15 -30 -15 -6 1 0 7 14 15 32 19 40 18 16 0z m44 -20 c0 -13 -5 -27 -11
-31 -8 -4 -9 1 -4 16 5 15 4 20 -4 16 -6 -4 -11 -2 -11 3 0 6 5 11 11 11 5 0
7 5 3 12 -4 7 -3 8 4 4 7 -4 12 -18 12 -31z m-142 -12 c-16 -2 -40 -2 -55 0
-16 2 -3 4 27 4 30 0 43 -2 28 -4z m-4 -29 c9 -3 16 -12 16 -19 0 -8 10 -16
23 -18 12 -2 -3 -5 -34 -6 -49 -1 -157 25 -146 35 2 2 19 -1 37 -7 28 -10 34
-9 42 5 9 16 34 21 62 10z"/>
<path d="M5100 9715 c-31 -38 27 -96 65 -65 18 15 20 51 3 68 -17 17 -53 15
-68 -3z"/>
<path d="M7361 9716 c-29 -34 10 -93 46 -70 29 18 39 42 27 62 -14 22 -57 27
-73 8z"/>
<path d="M6263 9003 c-35 -63 -37 -99 -9 -210 14 -56 26 -111 26 -122 0 -12 5
-21 10 -21 6 0 10 11 10 24 0 13 12 68 26 122 17 66 23 111 19 134 -8 39 -42
110 -53 110 -5 0 -18 -17 -29 -37z"/>
<path d="M6117 8883 c-16 -15 -5 -44 34 -89 60 -73 99 -156 120 -262 25 -122
23 -135 -5 -42 -32 107 -91 214 -144 260 -74 66 -152 77 -160 23 -4 -25 21
-46 81 -68 77 -29 141 -94 188 -191 23 -47 43 -102 46 -124 3 -22 9 -40 12
-40 4 0 12 26 20 57 32 140 124 260 226 298 63 23 87 43 83 69 -5 33 -48 42
-94 20 -79 -37 -153 -138 -205 -277 l-19 -52 5 50 c10 87 45 173 97 243 65 85
77 110 57 123 -8 5 -17 9 -20 9 -16 0 -62 -46 -79 -80 -25 -49 -60 -175 -60
-217 0 -17 -4 -35 -10 -38 -6 -3 -10 5 -10 19 0 46 -40 196 -65 246 -30 59
-74 87 -98 63z"/>
<path d="M9913 8808 c105 -103 141 -178 145 -303 4 -107 -15 -154 -66 -169
-40 -13 -47 -31 -22 -56 27 -27 52 -25 89 6 28 23 31 24 31 7 0 -66 -109 -196
-198 -235 -105 -47 -267 -16 -322 63 -36 49 -39 133 -8 179 29 43 67 58 103
42 26 -12 35 -54 15 -67 -16 -10 -1 -25 24 -25 44 0 74 58 56 106 -17 45 -58
81 -107 94 -38 11 -53 11 -97 -3 -167 -53 -201 -287 -61 -416 51 -47 100 -69
175 -80 l55 -8 -40 -7 c-82 -15 -85 -16 -85 -36 0 -23 28 -40 66 -40 26 0 26
-1 -19 -42 -26 -25 -48 -56 -52 -73 -16 -76 -17 -75 23 -46 15 10 68 39 117
64 146 75 239 164 310 297 19 36 35 60 35 54 1 -30 -57 -169 -137 -329 -116
-231 -144 -316 -151 -458 -3 -81 0 -125 12 -180 26 -107 90 -229 158 -303 58
-62 132 -114 162 -114 8 0 23 -9 33 -19 14 -15 30 -19 66 -18 46 2 58 9 37 22
-6 4 -8 10 -5 15 9 14 -7 41 -29 50 -14 5 -30 2 -48 -8 -22 -13 -31 -13 -58
-2 -91 38 -198 166 -238 285 -73 216 -51 379 91 675 86 179 136 325 172 497
39 190 30 314 -31 435 -43 85 -133 169 -209 195 -16 6 -39 14 -49 19 -10 4 15
-26 57 -68z"/>
<path d="M5797 8644 c-20 -11 -27 -22 -25 -37 3 -19 9 -22 48 -20 l45 2 -37
-10 c-20 -6 -55 -26 -77 -46 -167 -143 -86 -413 124 -413 73 0 123 26 153 78
27 49 30 80 3 35 -61 -100 -190 -111 -264 -24 -85 102 -51 251 72 314 143 72
311 0 391 -168 40 -85 47 -120 11 -59 -57 98 -170 175 -255 174 -39 -1 -105
-38 -126 -72 -51 -83 4 -183 84 -152 26 10 20 53 -9 64 -48 18 -20 82 44 100
49 13 116 -6 170 -49 50 -40 111 -157 111 -213 0 -88 -70 -148 -121 -102 -10
9 -23 13 -28 9 -20 -11 -12 -43 16 -65 46 -36 103 -7 138 71 l18 39 29 -50
c15 -27 37 -54 47 -60 50 -26 111 0 111 48 0 26 -12 28 -30 7 -30 -36 -100 -1
-120 61 -46 139 145 341 286 303 60 -17 84 -89 34 -102 -44 -11 -31 -67 15
-67 37 0 55 10 70 41 20 38 19 78 -5 116 -26 43 -73 66 -135 66 -93 0 -175
-52 -237 -147 -45 -70 -49 -58 -9 28 63 131 150 195 276 204 79 5 119 -7 174
-54 130 -109 70 -328 -94 -342 -67 -5 -113 20 -150 81 -14 23 -25 36 -25 29 0
-28 34 -84 66 -109 111 -84 277 -24 318 116 20 69 20 96 -1 160 -20 62 -92
133 -150 149 l-38 11 45 -2 c42 -2 45 0 45 23 0 38 -36 52 -131 47 -63 -2 -94
-9 -136 -30 -107 -53 -204 -183 -239 -323 l-13 -49 -13 58 c-21 92 -62 166
-133 238 -53 54 -76 70 -129 87 -76 26 -173 28 -214 6z m131 -51 c-10 -2 -26
-2 -35 0 -10 3 -2 5 17 5 19 0 27 -2 18 -5z"/>
<path d="M5423 8389 c-101 -29 -121 -198 -36 -299 14 -17 23 -33 21 -36 -9 -8
-190 180 -209 218 -24 47 -24 53 1 78 20 20 19 40 -1 40 -18 0 -49 -41 -49
-65 0 -32 34 -102 68 -137 31 -33 28 -34 -24 -9 -128 62 -273 16 -303 -97 -29
-106 58 -204 154 -172 72 24 97 96 49 143 l-25 25 22 7 c39 13 126 6 181 -13
30 -11 97 -42 149 -71 79 -43 88 -50 54 -44 -74 15 -162 9 -185 -12 -27 -25
-24 -70 5 -70 13 0 21 8 23 22 6 42 49 48 187 24 159 -27 248 -27 319 -1 63
24 138 87 178 149 38 61 36 86 -3 27 -37 -56 -122 -119 -191 -142 -64 -21
-165 -15 -230 14 -63 28 -142 103 -173 165 -44 89 -28 198 32 213 37 10 78
-15 78 -46 0 -21 -5 -25 -30 -25 -25 0 -30 -4 -30 -24 0 -54 73 -53 101 1 41
79 -40 163 -133 137z m-208 -260 c71 -34 79 -44 24 -29 -46 13 -125 13 -152
-1 -32 -17 -67 -51 -67 -65 0 -7 9 -16 20 -19 48 -15 4 -73 -46 -61 -53 14
-74 104 -37 155 51 69 143 77 258 20z"/>
<path d="M7080 8389 c-14 -6 -35 -20 -47 -31 -32 -30 -32 -99 -1 -128 29 -27
74 -26 88 1 18 32 5 52 -29 44 -21 -4 -30 -2 -35 10 -9 23 11 54 39 61 89 22
129 -92 71 -210 -31 -64 -109 -139 -174 -169 -66 -31 -197 -31 -263 -1 -58 27
-123 85 -162 144 -18 29 -26 36 -22 20 15 -48 75 -130 121 -163 100 -73 194
-82 426 -42 89 15 112 16 138 5 16 -7 31 -16 31 -21 1 -5 2 -15 3 -21 2 -20
34 -21 44 -1 6 10 6 28 1 40 -15 40 -103 51 -219 27 -35 -8 139 90 205 115 58
22 168 28 194 12 12 -8 11 -13 -9 -29 -18 -15 -24 -29 -23 -56 3 -90 120 -126
188 -58 88 88 41 228 -88 263 -48 13 -136 1 -189 -25 -44 -22 -44 -21 -8 21
63 71 76 158 28 184 -31 17 -45 -4 -19 -30 40 -40 3 -108 -122 -228 -81 -79
-103 -93 -63 -40 52 69 71 173 42 240 -23 56 -94 88 -146 66z m461 -229 c49
-14 89 -59 96 -108 5 -36 2 -45 -25 -72 -32 -32 -51 -36 -83 -20 -25 14 -25
46 1 53 30 8 24 40 -12 67 -42 31 -133 39 -195 17 -24 -8 -43 -13 -43 -12 0 8
80 50 125 66 58 21 87 23 136 9z"/>
<path d="M6140 8221 c0 -6 9 -15 21 -21 25 -14 21 -45 -6 -45 -13 0 -20 -7
-20 -20 0 -33 55 -27 75 8 13 24 13 30 0 55 -15 27 -70 45 -70 23z"/>
<path d="M6376 8211 c-37 -41 -1 -122 42 -95 25 16 22 40 -6 36 -20 -3 -23 0
-20 19 2 13 13 29 25 35 13 6 20 14 16 17 -12 13 -40 7 -57 -12z"/>
<path d="M5586 8159 c-19 -15 -26 -30 -26 -55 0 -91 144 -141 287 -99 57 17
126 64 144 97 11 22 10 21 -17 -3 -49 -45 -114 -72 -185 -77 -76 -5 -126 8
-159 43 -26 28 -21 56 9 48 32 -8 40 26 12 49 -29 23 -32 23 -65 -3z"/>
<path d="M6911 8148 c-12 -30 14 -63 29 -38 13 21 24 6 16 -23 -12 -51 -99
-79 -195 -65 -64 10 -99 27 -154 76 l-41 37 23 -33 c50 -72 138 -112 247 -112
107 0 174 46 174 120 0 45 -15 60 -57 60 -26 0 -36 -5 -42 -22z"/>
<path d="M6280 8057 c0 -8 -14 -33 -30 -56 l-31 -42 32 -60 33 -61 17 24 c10
13 25 39 35 59 16 36 16 38 -10 75 -14 21 -26 44 -26 51 0 6 -4 15 -10 18 -5
3 -10 0 -10 -8z"/>
<path d="M4772 7948 c-24 -24 -8 -69 18 -53 8 5 8 11 0 20 -8 9 -6 17 5 29 13
12 13 16 3 16 -8 0 -19 -5 -26 -12z"/>
<path d="M7771 7943 c8 -9 13 -25 11 -36 -2 -12 1 -18 10 -15 21 7 22 40 2 55
-25 18 -39 16 -23 -4z"/>
<path d="M1195 7636 c-20 -15 -17 -44 7 -59 12 -8 21 -7 32 2 36 30 -1 85 -39
57z"/>
<path d="M11284 7626 c-11 -28 1 -51 25 -51 28 0 47 25 38 49 -8 20 -56 21
-63 2z"/>
<path d="M2840 7585 c-30 -36 -4 -95 41 -95 40 0 66 69 37 98 -17 17 -63 15
-78 -3z"/>
<path d="M9607 7582 c-23 -25 -21 -55 3 -77 42 -38 113 25 84 73 -16 25 -66
27 -87 4z"/>
<path d="M1152 7468 c-30 -30 3 -77 40 -57 30 16 16 69 -17 69 -6 0 -16 -5
-23 -12z"/>
<path d="M11326 7465 c-9 -9 -16 -20 -16 -25 0 -15 32 -41 48 -38 24 5 39 35
26 56 -15 23 -38 26 -58 7z"/>
<path d="M1110 7295 c-23 -28 9 -72 45 -59 36 14 24 74 -15 74 -10 0 -23 -7
-30 -15z"/>
<path d="M11362 7298 c-18 -18 -14 -46 7 -58 38 -20 71 13 51 51 -12 21 -40
25 -58 7z"/>
<path d="M5298 7245 c-14 -8 -66 -25 -115 -38 -48 -12 -89 -27 -91 -32 -2 -5
10 -13 26 -17 16 -4 37 -17 48 -29 18 -20 19 -45 22 -593 3 -635 3 -638 -56
-667 -18 -10 -33 -20 -32 -24 0 -7 321 -7 329 0 2 3 -7 9 -20 14 -13 5 -33 19
-44 31 -20 22 -20 38 -23 696 -1 371 -6 674 -10 674 -4 -1 -19 -7 -34 -15z"/>
<path d="M3581 7210 c-249 -53 -449 -229 -529 -468 -24 -70 -26 -91 -26 -237
0 -147 2 -166 26 -240 34 -100 111 -218 186 -285 63 -57 204 -130 292 -151 80
-20 261 -17 335 5 92 27 174 75 235 137 59 59 115 157 99 173 -5 5 -10 8 -12
5 -106 -160 -169 -212 -306 -253 -67 -20 -188 -21 -257 -2 -191 51 -340 221
-395 451 -28 119 -23 312 11 420 93 295 323 456 572 401 143 -32 245 -129 314
-299 17 -43 35 -77 40 -75 5 2 8 10 7 18 -1 8 -5 81 -8 162 l-7 146 -71 27
c-146 54 -207 67 -337 70 -69 2 -145 0 -169 -5z"/>
<path d="M1088 7129 c-22 -12 -23 -42 -3 -59 32 -26 81 13 59 48 -14 21 -33
25 -56 11z"/>
<path d="M1719 7117 c-15 -12 -36 -37 -49 -55 -22 -32 -24 -33 -70 -27 -129
18 -225 -61 -237 -195 l-6 -58 -40 -5 c-75 -10 -117 -59 -117 -137 0 -41 -3
-46 -31 -59 -17 -7 -54 -38 -82 -69 -29 -30 -64 -68 -79 -83 l-26 -29 86 -88
c48 -49 97 -92 110 -96 18 -6 22 -15 22 -49 0 -76 43 -124 114 -129 l39 -3 4
-50 c11 -136 113 -219 239 -196 27 5 49 9 49 8 6 -21 62 -91 81 -99 29 -14 35
-8 58 54 39 106 111 167 182 153 36 -6 74 -46 74 -76 0 -44 76 -44 100 1 6 11
18 60 26 107 17 94 20 104 67 176 26 40 65 71 207 166 96 65 177 120 180 123
6 7 -170 138 -270 201 -115 72 -159 140 -180 282 -7 44 -18 92 -26 107 -26 49
-88 49 -99 -1 -15 -69 -103 -99 -161 -55 -45 33 -86 90 -105 146 -9 29 -21 54
-26 55 -4 2 -20 -7 -34 -20z m30 -146 c28 -54 102 -116 156 -131 57 -16 110
-3 159 40 l33 30 7 -62 c12 -119 87 -234 197 -304 81 -50 190 -137 182 -144
-4 -3 -55 -37 -113 -75 -117 -78 -200 -156 -231 -217 -17 -34 -48 -149 -49
-182 0 -6 -12 2 -27 16 -56 53 -119 61 -198 24 -55 -25 -103 -74 -124 -124
-16 -37 -24 -34 -51 17 -19 38 -20 38 -61 31 -122 -23 -210 79 -180 210 l9 41
-31 -8 c-77 -19 -128 0 -141 52 -3 13 -2 34 3 48 8 21 6 25 -27 37 -20 7 -65
40 -100 73 l-63 61 58 58 c33 34 75 65 100 74 24 9 43 17 43 18 0 1 -4 15 -9
32 -12 42 9 91 43 100 28 7 80 2 108 -10 16 -7 17 -1 12 71 -10 123 23 178
115 190 22 3 53 1 70 -5 29 -10 32 -9 47 21 17 33 34 57 40 57 2 0 12 -17 23
-39z"/>
<path d="M1632 6829 c-24 -25 -36 -86 -27 -131 9 -42 39 -100 59 -117 24 -20
19 -34 -6 -20 -27 15 -152 6 -174 -11 -8 -8 -13 -22 -11 -32 6 -22 -1 -22 -27
-3 -21 16 -66 21 -66 8 0 -5 7 -16 14 -26 12 -16 15 -16 29 -2 9 8 18 11 21 7
8 -14 -45 -35 -81 -33 -22 2 -51 -8 -87 -30 l-55 -33 49 -33 c37 -25 60 -33
92 -33 37 0 44 -3 44 -19 0 -11 -4 -19 -9 -18 -5 1 -12 -4 -15 -12 -3 -10 0
-12 12 -8 10 4 15 3 11 -3 -9 -15 9 -12 31 5 19 15 19 15 0 30 -11 8 -15 15
-9 15 7 0 14 -4 18 -10 3 -5 12 -7 20 -4 10 4 12 0 8 -14 -9 -36 39 -57 127
-57 l77 0 -27 -35 c-71 -90 -59 -230 20 -230 33 0 45 22 34 67 l-7 28 19 -24
c30 -35 41 -11 46 97 l3 93 -21 -26 c-20 -25 -30 -90 -12 -79 4 3 8 0 8 -6 0
-7 -7 -10 -15 -6 -10 3 -15 -1 -16 -12 0 -9 -3 -12 -5 -5 -3 7 0 22 6 33 6 12
9 24 6 27 -7 7 -25 -40 -36 -92 l-8 -40 -1 39 c-2 63 19 111 75 179 39 47 69
72 120 98 72 36 142 45 166 22 10 -10 2 -13 -36 -13 -26 0 -63 -7 -80 -15 -85
-41 -145 -149 -115 -210 8 -15 22 -33 32 -39 26 -16 61 27 53 66 -4 22 -1 30
22 41 22 11 27 19 24 46 -3 44 21 71 64 71 32 0 32 -1 27 -39 -4 -32 -2 -41
18 -55 31 -22 55 -20 80 5 15 15 20 30 17 54 -4 32 -3 33 42 37 25 3 82 21
126 41 45 20 97 38 115 38 34 1 34 2 -6 9 -22 3 -68 22 -103 40 -45 24 -81 35
-122 38 -54 4 -58 6 -47 22 8 14 8 25 -1 44 -29 65 -114 53 -120 -16 -4 -45
-30 -58 -69 -33 -22 15 -25 22 -20 55 5 41 -13 80 -38 80 -9 0 -15 14 -17 37
-3 43 -28 55 -58 28 -61 -56 -10 -184 94 -234 23 -12 62 -21 87 -21 36 -1 41
-2 25 -11 -51 -30 -170 16 -257 98 -58 55 -114 156 -106 191 2 11 14 -4 31
-43 28 -60 65 -119 72 -113 2 2 -1 21 -7 42 -8 27 -7 52 1 86 13 55 2 90 -30
90 -13 0 -20 8 -22 28 -4 36 -47 43 -76 11z m118 -399 c47 -17 74 -28 60 -25
-105 22 -182 28 -200 17 -11 -7 -39 -13 -62 -13 -30 -1 -18 -4 37 -11 44 -5
107 -6 140 -4 77 7 56 -8 -43 -30 -45 -10 -89 -14 -114 -10 -44 7 -142 46
-134 53 2 3 30 15 63 29 79 32 146 31 253 -6z m-374 -71 c4 -8 1 -8 -14 0 -12
6 -24 16 -28 22 -4 8 -1 8 14 0 12 -6 24 -16 28 -22z m251 -311 c-3 -8 -6 -5
-6 6 -1 11 2 17 5 13 3 -3 4 -12 1 -19z"/>
<path d="M10767 7133 c-2 -5 -12 -31 -21 -59 -19 -58 -73 -127 -118 -150 -42
-22 -90 -11 -122 27 -14 17 -26 39 -26 49 0 40 -67 33 -90 -10 -5 -10 -15 -54
-21 -97 -20 -143 -72 -223 -197 -299 -42 -25 -97 -64 -123 -85 -25 -20 -69
-53 -98 -72 l-53 -35 29 -18 c15 -9 44 -28 63 -41 19 -14 87 -60 150 -102 156
-106 202 -170 226 -319 15 -92 39 -132 80 -132 25 0 34 10 49 55 6 19 24 37
47 50 34 18 40 19 80 5 49 -17 97 -74 124 -147 9 -26 21 -52 25 -57 14 -15 58
14 91 60 29 41 30 41 71 31 56 -12 117 5 164 46 45 39 63 82 63 145 l0 49 41
7 c77 12 119 62 119 140 0 27 5 36 23 42 12 4 61 47 108 95 l86 89 -76 81
c-41 44 -91 89 -109 98 -31 16 -34 21 -36 67 -1 29 -9 62 -19 78 -20 30 -72
56 -112 56 -23 0 -25 3 -25 48 -1 60 -27 119 -73 159 -41 36 -86 48 -158 41
-46 -5 -51 -3 -64 22 -17 33 -70 90 -83 90 -6 0 -13 -3 -15 -7z m63 -165 c11
-18 21 -36 22 -39 2 -4 26 -2 53 4 121 25 193 -77 162 -227 -8 -35 -7 -38 10
-31 10 5 39 10 65 13 41 3 51 0 74 -23 23 -23 26 -32 21 -69 -6 -42 -5 -44 32
-61 21 -9 65 -44 97 -77 l59 -60 -64 -59 c-37 -34 -80 -64 -102 -70 -35 -11
-37 -14 -32 -40 16 -83 -50 -128 -138 -94 -14 5 -16 -5 -15 -72 1 -65 -3 -84
-22 -116 -31 -48 -73 -70 -126 -65 -22 3 -49 8 -58 12 -12 5 -18 4 -18 -4 0
-7 -9 -28 -21 -47 l-21 -34 -32 53 c-37 63 -108 114 -169 123 -51 8 -118 -16
-146 -50 l-18 -24 -11 62 c-17 90 -63 176 -125 233 -54 50 -204 158 -244 177
-13 6 -23 13 -23 16 0 7 87 72 203 151 119 81 164 150 187 283 l12 67 33 -29
c58 -50 131 -52 211 -5 37 21 104 103 104 126 0 19 22 6 40 -24z"/>
<path d="M10820 6835 c-7 -8 -10 -22 -6 -30 4 -11 -1 -15 -19 -15 -29 0 -28 3
-29 -117 -1 -90 0 -92 16 -70 10 12 27 47 39 77 30 74 43 86 35 32 -20 -136
-180 -282 -307 -282 -67 0 -70 17 -3 22 121 10 216 137 172 232 -22 50 -78 41
-78 -13 0 -18 -7 -30 -22 -36 -20 -9 -23 -16 -20 -62 2 -46 0 -54 -22 -68 -15
-10 -33 -14 -49 -9 -22 5 -25 10 -21 33 12 61 -84 85 -116 29 -12 -23 -13 -31
-2 -48 11 -19 10 -20 -33 -20 -32 0 -69 -11 -127 -40 -46 -22 -94 -40 -108
-41 -17 -1 -7 -7 30 -19 30 -10 81 -30 113 -45 41 -19 70 -26 98 -23 44 4 43
5 27 -22 -17 -27 1 -72 34 -84 20 -7 33 -5 53 8 24 16 27 23 22 57 -5 38 -5
39 27 39 50 0 70 -20 63 -63 -6 -39 10 -67 39 -67 10 0 14 -12 14 -38 0 -61
43 -84 74 -40 36 52 4 156 -66 211 -29 23 -52 32 -100 37 -60 6 -62 7 -35 18
41 17 55 15 124 -18 132 -62 223 -185 223 -302 0 -31 -4 -60 -10 -63 -6 -4
-10 15 -10 50 0 39 -7 70 -24 103 -48 93 -51 92 -51 -12 0 -99 12 -133 37
-108 19 19 23 15 23 -20 0 -71 82 -36 92 39 8 61 -3 106 -41 162 -33 48 -33
49 -9 40 63 -24 183 3 183 40 0 10 18 26 46 39 25 12 43 18 39 12 -17 -28 81
3 123 38 l34 28 -41 27 c-23 15 -56 30 -74 34 -30 6 -31 6 -14 -11 26 -26 21
-29 -14 -9 -35 21 -61 47 -37 38 9 -4 19 3 26 19 16 35 -11 42 -54 15 l-34
-21 0 22 c0 33 -60 54 -139 46 -60 -5 -63 -5 -48 12 56 61 75 196 36 246 -23
29 -60 34 -79 11z m225 -404 c54 -24 52 -30 -20 -57 -59 -22 -151 -23 -208 -2
-37 13 -33 14 82 13 67 0 121 4 121 8 0 5 4 6 9 3 5 -4 17 -3 26 0 16 6 16 8
1 16 -9 5 -20 7 -24 4 -4 -2 -38 2 -75 10 -49 10 -80 11 -118 4 -91 -17 -96
-10 -8 15 68 19 152 14 214 -14z"/>
<path d="M11082 6311 c-11 -6 -11 -10 0 -18 36 -28 73 -19 48 12 -14 17 -29
19 -48 6z m47 -24 c0 -9 -2 -8 -6 1 -2 6 -10 9 -15 6 -7 -4 -8 -2 -4 5 9 13
26 5 25 -12z"/>
<path d="M11391 7126 c-21 -25 -10 -61 18 -61 31 0 50 28 35 53 -15 23 -38 26
-53 8z"/>
<path d="M7620 7063 c-73 -27 -78 -143 -7 -179 41 -22 90 -11 121 27 66 78
-16 188 -114 152z"/>
<path d="M7197 6993 c-4 -3 -7 -12 -7 -19 0 -7 -9 -38 -21 -69 -25 -68 -109
-161 -173 -193 -25 -13 -46 -28 -46 -33 0 -5 27 -9 60 -9 l59 0 3 -357 c3
-348 4 -359 25 -399 53 -99 178 -120 289 -48 40 26 92 90 81 100 -3 3 -24 -8
-48 -25 -76 -56 -161 -34 -188 48 -7 22 -11 147 -11 357 l0 324 110 0 c103 0
110 1 110 20 0 19 -7 20 -110 20 l-110 0 0 145 c0 133 -4 157 -23 138z"/>
<path d="M1060 6955 c-26 -31 13 -82 44 -56 21 17 21 57 0 65 -23 9 -30 8 -44
-9z"/>
<path d="M11411 6956 c-21 -25 -10 -61 18 -61 31 0 50 28 35 53 -15 23 -38 26
-53 8z"/>
<path d="M1040 6775 c-6 -8 -9 -23 -5 -35 8 -25 51 -27 64 -2 20 38 -31 71
-59 37z"/>
<path d="M11420 6775 c-14 -17 -5 -51 16 -59 22 -8 54 11 54 32 0 38 -46 56
-70 27z"/>
<path d="M4579 6711 c-220 -70 -338 -327 -268 -581 24 -90 53 -142 109 -198
181 -181 499 -133 606 91 21 43 11 62 -13 26 -26 -37 -82 -86 -122 -106 -56
-28 -202 -25 -258 5 -100 53 -166 159 -183 297 -5 43 -9 80 -7 81 1 2 135 4
297 6 l295 3 -1 61 c-2 116 -53 221 -136 276 -86 58 -212 73 -319 39z m205
-39 c19 -11 43 -41 61 -77 24 -48 30 -71 30 -126 0 -110 1 -109 -233 -109
l-195 0 7 55 c14 124 88 240 171 271 48 17 116 11 159 -14z"/>
<path d="M5789 6717 c-100 -28 -185 -100 -242 -204 -79 -146 -75 -355 9 -499
35 -59 115 -131 182 -162 50 -24 69 -27 157 -27 90 0 106 3 158 28 76 38 108
66 157 139 30 45 38 64 29 72 -8 8 -15 4 -27 -14 -102 -154 -325 -175 -454
-43 -25 27 -56 68 -68 92 -22 45 -50 156 -50 204 l0 27 301 0 302 0 -6 75
c-14 190 -140 314 -327 322 -41 1 -95 -3 -121 -10z m183 -43 c91 -47 139 -233
77 -295 -17 -17 -34 -19 -207 -19 -104 0 -191 2 -194 5 -11 11 14 120 41 178
30 68 93 133 138 143 16 3 33 7 38 9 17 6 78 -6 107 -21z"/>
<path d="M6500 6711 c-168 -60 -215 -271 -86 -389 24 -22 102 -70 174 -106
179 -91 220 -143 192 -245 -25 -94 -126 -141 -232 -109 -79 23 -133 89 -196
238 -8 19 -11 -3 -11 -102 l-1 -126 53 -17 c139 -42 291 -43 380 0 164 78 191
304 49 409 -26 18 -99 59 -163 90 -157 77 -199 119 -199 204 0 131 177 186
287 89 33 -29 93 -135 93 -164 0 -7 5 -13 10 -13 7 0 10 40 8 112 l-3 113 -55
12 c-30 7 -98 15 -150 18 -79 5 -105 2 -150 -14z"/>
<path d="M7618 6685 c-113 -38 -142 -55 -98 -55 12 0 32 -11 45 -25 l25 -24 0
-328 c-1 -360 -1 -362 -61 -394 -34 -18 -34 -18 134 -19 92 0 167 2 167 5 0 3
-11 10 -24 15 -14 5 -33 21 -43 37 -16 25 -18 64 -23 428 l-5 400 -117 -40z"/>
<path d="M8003 6688 c-105 -37 -138 -58 -95 -58 22 -1 45 -19 60 -47 9 -15 12
-117 12 -338 0 -264 -3 -321 -15 -345 -9 -17 -19 -30 -23 -30 -5 0 -17 -7 -28
-15 -17 -13 -1 -14 146 -15 164 0 165 0 135 18 -61 38 -60 30 -63 341 -2 157
-1 296 3 309 3 13 24 43 46 67 104 113 283 89 328 -44 14 -42 15 -588 1 -625
-5 -14 -26 -34 -47 -45 l-38 -20 168 -1 c92 0 167 2 167 4 0 2 -15 13 -34 24
-25 15 -38 32 -45 59 -7 23 -11 152 -11 320 0 261 -2 286 -21 337 -66 179
-309 197 -470 36 l-49 -49 0 79 c0 44 -3 79 -7 79 -5 -1 -59 -20 -120 -41z"/>
<path d="M9093 6719 c-92 -18 -187 -79 -219 -140 -21 -42 -18 -85 8 -103 50
-35 93 -6 108 72 13 69 42 110 98 134 79 35 157 5 197 -76 21 -43 25 -64 25
-147 l0 -97 -47 -16 c-27 -8 -82 -25 -123 -37 -156 -45 -257 -103 -289 -167
-65 -131 -4 -280 128 -312 103 -25 203 6 285 87 50 49 56 51 56 23 0 -34 28
-79 60 -95 34 -18 112 -20 143 -4 32 17 87 71 87 86 0 17 -10 16 -31 -3 -25
-23 -67 -21 -92 5 -21 21 -22 31 -27 324 l-5 302 -28 48 c-59 100 -189 145
-334 116z m217 -552 l0 -163 -32 -31 c-48 -45 -90 -63 -148 -63 -64 0 -106 23
-131 72 -41 79 -11 186 67 241 34 24 216 106 237 107 4 0 7 -73 7 -163z"/>
<path d="M2577 6703 c-12 -11 -8 -53 6 -54 6 -1 21 -2 32 -3 50 -3 91 -213 65
-335 -15 -74 -49 -136 -74 -136 -23 0 -41 -27 -33 -49 9 -23 40 -20 65 7 11
12 33 49 49 82 26 57 28 68 28 195 -1 116 -4 143 -23 191 -34 84 -87 131 -115
102z"/>
<path d="M9885 6684 c-14 -15 -34 -52 -46 -83 -19 -48 -23 -76 -23 -191 0
-117 3 -143 22 -191 28 -70 64 -111 95 -107 33 5 31 53 -3 53 -73 1 -115 253
-65 400 18 53 41 86 59 84 23 -3 34 2 40 16 18 47 -40 61 -79 19z"/>
<path d="M2281 6119 c-19 -7 -21 -12 -11 -24 6 -8 9 -18 6 -24 -8 -12 21 -41
41 -41 9 0 25 8 35 17 18 17 22 16 74 -11 199 -104 294 -406 220 -698 -13 -52
-57 -170 -99 -263 -41 -94 -80 -187 -87 -208 -18 -58 -24 -37 -10 41 18 98 9
229 -17 275 l-21 35 30 29 c16 15 46 61 66 101 31 64 36 86 40 162 3 64 0 101
-12 137 -35 105 -125 168 -206 144 -68 -20 -104 -96 -64 -135 18 -19 55 -21
71 -5 29 29 83 -13 103 -80 7 -27 6 -31 -9 -31 -11 0 -24 -12 -31 -30 -10 -24
-17 -29 -35 -24 -25 6 -52 -16 -61 -50 l-5 -23 -29 28 c-34 34 -74 38 -90 9
-9 -18 -14 -19 -33 -8 -13 8 -60 13 -119 13 l-97 0 25 26 c25 26 33 79 12 79
-25 0 -113 -27 -145 -44 -29 -14 -33 -15 -33 -1 0 22 -29 18 -79 -10 -46 -27
-55 -30 -47 -17 10 16 -15 84 -39 108 -30 30 -49 30 -77 2 -15 -15 -23 -18
-26 -10 -10 30 -59 76 -101 94 -75 32 -122 85 -153 172 l-18 51 4 -80 c6 -109
35 -183 97 -245 49 -49 49 -50 19 -44 -22 5 -31 2 -36 -11 -11 -27 22 -84 62
-107 22 -13 33 -26 30 -35 -3 -8 -6 -20 -6 -25 0 -6 -3 -8 -7 -5 -11 12 -33
-15 -33 -41 0 -14 9 -45 21 -69 24 -49 24 -46 -27 -208 -26 -83 -28 -102 -28
-255 0 -193 16 -266 88 -417 80 -166 200 -314 320 -396 70 -47 203 -111 269
-129 26 -6 47 -15 47 -18 0 -3 -17 -14 -37 -25 -49 -26 -83 -86 -83 -147 0
-37 5 -51 20 -60 11 -7 20 -23 20 -36 0 -61 68 -143 130 -157 46 -10 47 0 7
44 -85 94 -40 239 96 305 157 76 386 44 569 -80 79 -54 129 -112 164 -191 14
-32 32 -72 40 -90 8 -17 17 -51 20 -75 l6 -43 -41 -13 c-22 -6 -69 -12 -104
-12 -80 0 -160 -23 -197 -58 -39 -36 -42 -62 -8 -81 25 -14 33 -14 105 8 43
12 104 36 136 52 33 16 57 25 55 19 -9 -27 -162 -145 -243 -186 -49 -26 -98
-54 -108 -63 -22 -19 -47 -75 -47 -105 0 -12 -6 -46 -14 -76 -8 -30 -13 -56
-12 -58 2 -1 23 5 47 14 24 8 62 18 83 20 64 7 119 60 152 146 29 79 39 96
122 206 52 69 77 89 52 42 -48 -90 -76 -259 -50 -300 8 -13 13 -13 37 0 44 24
74 97 81 195 2 47 8 85 11 85 12 -1 60 -119 72 -179 20 -106 -12 -200 -81
-236 -40 -21 -70 -19 -96 6 -23 21 -23 21 -56 2 -39 -22 -58 -74 -40 -104 10
-15 10 -25 1 -41 -19 -35 5 -91 59 -138 l47 -42 6 34 c8 52 23 70 96 118 84
56 126 115 142 202 12 61 5 122 -25 227 -5 18 -4 22 5 16 10 -6 11 -3 2 14
-14 25 -23 28 -14 4 9 -25 1 -17 -52 57 -38 52 -41 59 -16 36 18 -18 31 -24
31 -16 0 9 6 7 21 -6 26 -24 109 -133 109 -144 0 -5 -14 -5 -30 0 -27 8 -30 7
-26 -8 16 -52 26 -113 26 -163 0 -63 -23 -151 -45 -169 -11 -10 -12 -17 -3
-34 32 -61 104 -45 142 32 42 82 29 201 -35 331 -35 71 -58 100 -142 182 -115
112 -120 130 -33 118 265 -36 465 -330 443 -649 -11 -153 -62 -262 -142 -307
-69 -39 -161 -21 -203 38 -34 48 -43 -1 -13 -67 22 -48 66 -83 116 -91 20 -3
35 -11 35 -19 0 -33 97 -46 149 -20 30 16 91 80 91 96 0 24 18 7 24 -23 8 -45
67 -164 117 -239 140 -208 429 -391 693 -437 127 -23 331 -8 466 34 122 38
172 38 221 3 20 -15 30 -17 53 -8 15 5 30 19 33 30 3 11 6 20 8 20 1 0 25 -23
52 -50 28 -28 55 -50 61 -50 20 0 43 32 37 51 -4 11 -2 19 4 19 6 0 11 -4 11
-9 0 -4 18 -28 40 -53 54 -62 121 -89 230 -95 l85 -4 -59 25 c-75 32 -106 62
-151 147 -32 61 -73 108 -107 122 -10 4 -8 9 5 17 10 7 17 23 17 45 0 44 -46
85 -96 85 l-34 0 20 33 c23 38 26 73 6 80 -12 5 -11 12 5 45 11 21 22 62 26
90 6 50 5 52 -18 52 -30 0 -69 -26 -69 -46 0 -8 -5 -14 -11 -14 -7 0 -9 9 -5
23 32 118 28 226 -13 292 -18 30 -18 30 11 57 35 32 36 61 3 94 -14 14 -25 26
-25 28 0 2 13 6 28 9 16 3 44 20 62 37 44 41 80 32 122 -28 15 -22 15 -26 0
-52 -15 -25 -15 -30 1 -54 35 -53 116 -21 138 55 21 70 -23 154 -104 195 -112
58 -286 26 -399 -75 l-47 -42 -33 18 c-27 15 -56 18 -155 18 -67 0 -119 3
-115 6 4 4 25 12 47 19 22 7 99 42 170 78 271 135 419 159 612 97 40 -12 95
-37 122 -54 60 -39 135 -117 158 -165 15 -33 15 -37 0 -54 -20 -22 -22 -53 -5
-70 15 -15 61 -15 76 0 19 19 15 66 -8 78 -11 6 -20 19 -20 28 0 28 -55 108
-112 162 -122 117 -319 176 -495 150 -113 -17 -222 -59 -437 -169 -171 -87
-351 -160 -363 -147 -2 2 33 24 79 47 124 65 228 172 296 306 29 56 64 116 78
132 l26 31 -26 0 c-44 0 -90 -25 -129 -70 l-37 -44 0 36 c0 23 -7 41 -21 54
-21 19 -21 18 -41 -5 -10 -14 -22 -38 -25 -54 -6 -28 -8 -26 -28 34 -28 85
-68 142 -122 178 -64 42 -106 54 -179 49 -50 -3 -72 -10 -106 -34 -133 -93
-141 -276 -15 -338 66 -32 147 1 147 59 0 32 -22 41 -51 22 -37 -27 -79 3 -79
56 0 21 11 41 39 68 35 35 44 39 90 39 29 0 65 -7 80 -14 78 -41 129 -152 117
-255 -19 -160 -141 -286 -313 -321 -66 -14 -93 -7 -36 9 62 17 103 55 103 96
0 58 -62 79 -65 21 -3 -85 -172 -112 -307 -49 -58 27 -178 124 -178 143 0 5
19 -2 43 -15 77 -45 190 -26 222 36 20 38 19 65 -3 87 -13 13 -18 29 -14 50 3
24 -2 37 -22 57 -32 32 -48 29 -57 -13 -9 -43 -25 -60 -70 -74 -67 -20 -112 1
-203 96 -43 44 -92 105 -109 134 -16 30 -35 55 -41 57 -81 20 -114 28 -131 32
-11 2 5 -9 35 -26 107 -57 125 -78 295 -342 46 -71 50 -79 38 -79 -5 0 -16 12
-26 28 l-17 27 6 -30 c21 -105 123 -222 241 -278 65 -31 73 -32 193 -32 113 0
139 4 273 39 137 35 156 38 260 35 107 -4 116 -6 198 -45 105 -51 180 -123
231 -221 51 -98 63 -153 62 -273 -1 -217 -89 -383 -258 -484 -80 -48 -105 -46
-30 2 136 88 224 254 224 422 0 129 -52 269 -130 354 -72 78 -218 128 -259 87
-10 -10 -31 -21 -47 -25 -77 -20 -147 -99 -159 -181 -5 -32 -1 -55 15 -94 27
-61 66 -92 124 -98 73 -9 132 61 91 107 -13 15 -12 19 9 39 30 28 92 37 140
21 116 -38 177 -181 142 -333 -35 -151 -144 -266 -306 -324 -36 -12 -74 -22
-85 -22 -11 0 3 8 30 18 87 31 129 57 183 115 85 90 118 190 92 282 -24 86
-109 137 -165 100 -32 -21 -32 -53 0 -78 21 -16 25 -28 25 -71 0 -102 -75
-209 -183 -262 -113 -54 -307 -70 -387 -32 -24 12 -27 15 -10 11 14 -3 63 -8
111 -11 73 -5 92 -2 137 17 93 40 139 124 111 203 -18 55 -73 88 -113 69 -19
-8 -26 -19 -26 -40 0 -35 -37 -78 -82 -96 -114 -47 -258 -15 -347 77 -23 23
-41 44 -41 47 0 3 19 4 43 2 49 -3 101 20 130 60 28 38 17 58 -33 58 -70 0
-175 30 -237 66 -169 102 -234 238 -262 556 -23 250 -102 405 -263 518 -75 53
-81 62 -19 31 85 -44 182 -145 233 -246 48 -94 66 -155 89 -308 11 -78 30
-168 41 -201 62 -189 233 -316 423 -316 145 0 235 74 235 193 0 54 -3 62 -34
93 -26 26 -42 34 -70 34 -45 0 -79 -30 -70 -64 7 -29 -36 -83 -83 -102 -114
-48 -264 44 -312 189 -11 34 -28 109 -37 167 -56 362 -219 590 -469 656 -27 8
-89 14 -137 14 -49 0 -88 4 -88 9 0 16 61 57 139 95 207 99 440 85 563 -34 50
-48 58 -74 36 -110 -11 -17 -10 -22 2 -30 23 -15 38 -12 60 10 29 29 27 97 -4
143 -20 28 -22 37 -10 41 8 3 14 10 14 15 0 24 -64 80 -121 106 -53 23 -77 28
-155 29 -89 1 -91 1 -65 17 45 27 98 97 110 144 6 24 11 73 11 108 l0 65 -47
-5 c-153 -14 -217 -58 -301 -208 -16 -29 -15 -1 3 68 29 113 12 251 -33 272
-12 5 -25 17 -27 26 -3 9 -15 25 -26 35 -15 14 -24 16 -37 7 -13 -8 -26 -6
-52 8 -46 25 -95 24 -121 -2 -37 -37 -16 -75 32 -55 46 19 124 -88 149 -205
19 -90 8 -248 -23 -329 -34 -91 -71 -162 -96 -184 l-21 -19 0 54 c0 30 -6 81
-14 114 -47 211 -63 243 -191 371 -116 116 -140 156 -132 221 5 51 28 80 71
91 36 10 37 33 3 70 -17 18 -29 23 -53 19 -24 -4 -32 -1 -40 16 -12 28 -44 33
-83 12 -67 -34 -83 -147 -32 -226 36 -55 102 -117 163 -152 55 -32 149 -116
179 -161 12 -17 1 -8 -25 21 -102 113 -261 195 -479 244 -153 35 -218 62 -276
115 -76 68 -107 167 -81 259 16 56 71 109 107 102 57 -11 75 78 25 126 -78 75
-209 42 -261 -66 -79 -163 9 -400 192 -522 66 -44 141 -69 281 -96 185 -34
316 -98 421 -203 29 -29 60 -68 70 -87 l16 -34 -27 35 c-125 156 -272 230
-502 254 -227 24 -334 69 -444 184 -89 93 -128 184 -137 322 -5 76 -8 85 -26
85 -11 0 -28 -14 -40 -32 -11 -18 -27 -32 -37 -33 -19 0 -38 -48 -38 -94 0
-17 9 -51 20 -76 l20 -45 -28 32 c-85 99 -142 254 -127 350 15 100 66 173 121
173 19 0 24 5 24 25 0 42 -41 75 -93 75 -75 0 -143 -63 -168 -154 -11 -39 -7
-178 5 -236 3 -14 -3 0 -14 30 -23 68 -25 159 -4 253 32 139 99 238 197 287
74 37 122 39 170 6 34 -23 36 -23 51 -7 44 48 -6 138 -89 161 -142 40 -306
-72 -351 -239 -13 -46 -13 -46 -13 -11 -1 65 83 206 162 271 51 42 121 76 182
89 135 28 270 -51 290 -171 8 -44 -8 -99 -34 -123 -16 -15 -19 -15 -31 -1 -32
39 -100 -6 -100 -67 0 -94 103 -163 206 -137 56 14 129 79 140 124 3 17 13 38
22 47 21 24 10 107 -23 174 -97 197 -379 283 -587 178 -74 -37 -170 -133 -208
-209 -18 -36 -34 -65 -36 -65 -7 0 17 65 42 109 61 114 170 206 283 242 305
95 602 -73 666 -378 23 -106 18 -213 -15 -388 -44 -228 -37 -342 26 -467 38
-75 136 -169 204 -195 30 -12 62 -24 72 -28 9 -3 -23 33 -70 82 -56 56 -98
110 -117 148 -27 54 -30 69 -30 157 0 110 16 145 73 163 39 11 43 41 7 57 -33
15 -78 -5 -105 -46 -33 -52 -23 -5 15 72 59 118 149 181 267 190 39 3 87 -1
112 -8 99 -27 171 -130 148 -208 -15 -51 -53 -85 -93 -85 -38 0 -65 29 -48 50
16 18 4 43 -21 43 -54 0 -77 -77 -40 -137 67 -110 246 -81 309 50 73 150 -45
351 -219 374 -49 7 -53 23 -6 23 19 0 44 9 57 19 22 18 23 21 8 36 -9 9 -32
17 -52 18 -43 2 -46 9 -13 26 38 21 68 70 74 120 l5 46 -29 -26 c-16 -15 -69
-47 -119 -73 -49 -25 -111 -63 -137 -84 -75 -62 -155 -161 -190 -234 -34 -73
-56 -93 -33 -30 42 113 80 202 140 327 132 275 167 390 167 555 1 126 -17 205
-72 315 -55 113 -114 176 -206 221 -41 21 -79 43 -85 51 -13 15 -43 16 -78 2z
m-541 -989 c0 -12 -8 -12 -35 0 -18 8 -17 9 8 9 15 1 27 -3 27 -9z m25 -40 c7
-12 -12 -12 -40 0 -18 8 -17 9 7 9 15 1 30 -3 33 -9z m1325 -1961 c0 -11 -4
-17 -10 -14 -5 3 -10 15 -10 26 0 11 5 17 10 14 6 -3 10 -15 10 -26z m-325
-214 c-74 -81 -108 -107 -86 -66 10 18 149 151 158 151 3 0 -30 -38 -72 -85z
m584 -204 l-1 -36 -9 44 c-11 56 -24 69 -16 16 l6 -40 -14 30 c-17 36 -19 55
-5 55 6 0 10 8 10 18 1 9 7 2 15 -17 8 -18 15 -50 14 -70z m-62 7 c-3 -8 -6
-5 -6 6 -1 11 2 17 5 13 3 -3 4 -12 1 -19z m1672 -807 c0 -10 -4 -7 -10 8 -5
14 -13 30 -17 36 -4 6 1 2 11 -8 9 -11 17 -27 16 -36z m-1022 -13 c3 -7 -8 -2
-25 10 -17 13 -35 28 -39 34 -3 7 8 2 25 -10 17 -13 35 -28 39 -34z m940 -10
c-3 -8 -6 -5 -6 6 -1 11 2 17 5 13 3 -3 4 -12 1 -19z m53 -40 c0 -51 -5 -47
-13 10 -3 24 -1 40 4 36 5 -3 9 -24 9 -46z m27 -60 c-3 -7 -5 -2 -5 12 0 14 2
19 5 13 2 -7 2 -19 0 -25z"/>
<path d="M10164 6105 c-15 -14 -35 -25 -44 -25 -28 0 -124 -70 -165 -120 -47
-56 -97 -155 -126 -250 -19 -60 -23 -97 -23 -185 1 -169 30 -265 178 -583 72
-155 137 -320 135 -345 0 -7 -18 25 -39 71 -74 157 -167 252 -326 332 -46 24
-96 54 -110 67 -14 12 -27 23 -30 23 -2 0 -4 -15 -4 -34 0 -40 34 -94 77 -121
40 -25 41 -33 6 -28 -34 4 -77 -17 -81 -40 -4 -20 33 -37 79 -37 16 0 29 -4
29 -10 0 -5 -13 -10 -28 -10 -80 0 -193 -73 -232 -150 -78 -154 12 -329 170
-330 115 0 192 109 125 176 -35 35 -61 28 -57 -15 5 -68 -49 -82 -104 -27 -29
29 -34 41 -34 81 0 64 24 109 76 144 88 58 187 64 289 17 86 -39 141 -107 181
-220 l15 -41 -34 38 c-39 41 -74 48 -100 19 -24 -27 -21 -39 13 -45 83 -17
102 -195 35 -327 -30 -59 -117 -164 -164 -196 -29 -21 -32 -25 -11 -19 102 28
183 88 242 179 85 132 100 270 54 501 -58 294 -19 490 129 641 234 239 628
186 802 -107 18 -30 35 -70 39 -89 5 -31 3 -29 -20 18 -73 150 -185 238 -335
263 -186 31 -387 -63 -461 -216 -25 -52 -41 -175 -22 -175 5 0 12 -14 16 -32
28 -142 254 -194 326 -75 27 44 26 111 -1 138 -20 20 -31 21 -86 4 -18 -6 -26
-1 -42 26 -25 41 -26 77 -5 127 54 131 216 181 361 112 102 -48 195 -148 238
-255 l16 -40 -22 25 c-14 17 -19 19 -15 8 8 -25 -1 -22 -15 3 -8 15 -8 19 0
15 23 -14 10 14 -28 62 -73 92 -204 134 -294 94 -72 -32 -108 -108 -73 -154
17 -23 25 -23 52 3 75 71 240 -7 318 -150 38 -71 59 -164 59 -266 0 -78 -17
-184 -28 -173 -2 2 0 35 5 73 18 140 -21 272 -93 316 -43 25 -107 25 -135 -1
-36 -34 -42 -97 -8 -84 8 3 28 -2 46 -11 74 -38 104 -198 60 -322 -20 -59 -87
-168 -120 -198 -20 -18 -20 -18 -3 15 35 71 25 180 -16 180 -12 0 -21 9 -25
25 -3 13 -15 29 -27 35 -32 18 -47 -2 -42 -53 12 -106 -50 -256 -144 -349
-114 -112 -216 -153 -453 -183 -69 -9 -150 -23 -180 -31 -76 -22 -175 -75
-240 -130 -54 -45 -53 -44 8 14 100 96 181 132 437 197 77 19 169 49 204 66
88 44 169 127 217 225 35 69 39 88 43 167 4 106 -13 161 -65 206 -68 60 -160
62 -218 5 -48 -48 -29 -133 28 -126 28 4 71 -30 93 -71 22 -44 20 -133 -5
-190 -47 -105 -149 -168 -342 -211 -230 -51 -337 -103 -456 -221 -44 -44 -91
-93 -103 -110 l-22 -30 17 35 c25 52 138 165 218 217 146 96 205 172 206 264
0 81 -59 141 -123 125 -14 -3 -28 -14 -31 -24 -5 -14 -14 -17 -34 -14 -36 5
-82 -31 -82 -64 0 -18 5 -24 23 -24 57 0 96 -68 78 -137 -15 -55 -36 -82 -133
-172 -96 -90 -143 -157 -158 -222 -5 -24 -18 -75 -29 -114 -11 -38 -20 -100
-20 -137 -1 -38 -4 -68 -7 -68 -25 0 -113 168 -135 260 -20 85 -16 243 9 318
35 107 106 177 153 151 17 -9 23 -8 30 2 12 20 11 32 -7 57 -19 28 -86 30
-129 4 -26 -16 -31 -17 -41 -4 -16 21 -50 6 -66 -28 -7 -17 -19 -30 -26 -30
-21 0 -54 -87 -60 -155 -2 -34 1 -85 7 -115 6 -29 10 -55 8 -57 -2 -2 -18 19
-35 46 -53 86 -123 125 -242 133 l-55 4 4 -80 c5 -126 55 -215 138 -247 40
-15 23 -19 -37 -10 -62 10 -159 0 -211 -22 -73 -30 -139 -110 -103 -124 11 -4
10 -11 -7 -34 -53 -75 -26 -185 41 -164 22 7 25 26 9 53 -28 45 67 136 180
172 157 50 422 -7 530 -112 l34 -33 -109 -7 c-130 -7 -190 -24 -271 -77 -163
-105 -255 -271 -310 -560 -36 -191 -48 -232 -86 -287 -66 -96 -179 -136 -270
-96 -51 23 -75 53 -81 102 -11 94 -139 70 -166 -31 -15 -53 2 -110 46 -159 62
-69 181 -89 303 -51 84 26 141 62 196 123 82 92 115 175 145 375 37 251 108
395 244 499 58 44 106 71 106 59 0 -2 -23 -17 -50 -35 -150 -96 -236 -265
-260 -505 -20 -207 -36 -283 -77 -364 -82 -162 -252 -271 -423 -271 -36 0 -40
-3 -40 -24 0 -33 53 -84 96 -92 19 -3 51 -4 71 -1 l37 6 -49 -49 c-122 -124
-335 -146 -425 -44 -16 19 -30 46 -30 60 0 16 -8 28 -25 36 -56 25 -125 -41
-125 -119 0 -46 41 -105 94 -138 48 -29 53 -30 174 -30 111 0 121 -1 86 -12
-94 -28 -284 -9 -377 38 -100 51 -177 149 -193 246 -7 43 13 94 42 111 24 13
9 47 -26 62 -38 16 -81 5 -112 -28 -40 -42 -48 -66 -48 -134 0 -143 119 -284
288 -339 l57 -19 -45 5 c-75 9 -200 75 -264 140 -81 82 -119 165 -124 271 -3
64 0 95 13 130 35 91 105 144 193 144 74 0 127 -51 91 -87 -18 -18 -1 -61 31
-78 39 -20 73 -19 119 4 101 52 118 199 33 293 -38 42 -80 68 -109 68 -10 0
-27 10 -37 21 -15 19 -25 20 -69 15 -210 -27 -365 -271 -329 -518 22 -152 124
-308 241 -367 24 -13 41 -25 38 -28 -11 -10 -133 64 -188 114 -63 59 -120 156
-144 249 -19 74 -19 220 0 303 48 203 226 365 429 391 93 12 162 3 341 -42
113 -28 147 -33 255 -32 107 0 133 3 183 23 85 34 178 124 222 216 39 80 46
118 14 67 -12 -18 -24 -31 -27 -28 -2 3 13 34 35 68 22 35 59 97 83 138 56 96
142 183 215 216 72 33 65 41 -11 13 -62 -23 -96 -53 -232 -207 -70 -79 -126
-109 -185 -98 -45 8 -87 50 -87 87 0 36 -22 38 -55 4 -17 -16 -25 -35 -25 -58
0 -19 -7 -40 -15 -47 -24 -20 -19 -73 10 -104 48 -52 131 -61 208 -23 39 20
45 21 37 6 -17 -31 -114 -109 -168 -135 -57 -27 -157 -41 -216 -30 -50 10 -96
51 -96 87 0 24 -4 29 -23 29 -90 0 -39 -122 64 -151 70 -20 18 -23 -61 -4 -89
22 -184 84 -227 148 -101 151 -76 358 49 423 15 8 48 14 73 14 78 0 135 -43
135 -103 0 -59 -34 -83 -79 -55 -15 9 -23 9 -35 -1 -22 -18 -20 -35 7 -66 32
-38 91 -44 136 -13 53 36 74 71 79 131 11 139 -82 237 -228 237 -78 0 -138
-24 -194 -78 -41 -39 -96 -142 -96 -179 0 -13 -4 -23 -10 -23 -5 0 -10 8 -10
18 0 24 -28 62 -46 62 -9 0 -23 -18 -31 -40 l-16 -41 -30 37 c-33 39 -80 64
-124 64 l-27 0 26 -27 c14 -16 49 -75 78 -133 45 -89 66 -118 140 -190 65 -65
105 -95 165 -125 43 -21 74 -40 68 -42 -22 -8 -167 53 -388 162 -266 131 -347
157 -495 158 -108 0 -177 -16 -280 -68 -106 -53 -217 -166 -235 -238 -4 -14
-13 -31 -21 -38 -30 -25 -6 -89 33 -89 24 0 53 30 53 53 0 10 -9 25 -19 34
-19 15 -19 18 -4 47 49 96 153 179 280 222 65 23 95 27 178 27 137 -1 223 -26
425 -123 92 -44 173 -80 181 -80 8 -1 24 -6 37 -14 20 -10 6 -12 -90 -8 -95 3
-121 1 -165 -16 l-51 -20 -34 35 c-43 44 -138 91 -208 102 -98 16 -215 -14
-262 -66 -67 -74 -55 -191 23 -223 57 -24 107 27 79 80 -15 28 0 60 40 83 39
24 53 21 90 -13 18 -17 43 -33 56 -36 30 -8 30 -8 -1 -38 -34 -34 -32 -70 4
-97 l29 -21 -26 -45 c-32 -58 -40 -154 -19 -243 9 -36 13 -67 10 -70 -3 -3 -8
1 -11 9 -17 50 -102 84 -102 42 0 -18 28 -113 45 -153 5 -13 2 -18 -9 -18 -22
0 -20 -38 4 -77 l20 -33 -26 0 c-32 0 -80 -25 -88 -45 -11 -30 -6 -74 10 -83
12 -7 8 -13 -23 -34 -25 -16 -48 -45 -68 -84 -48 -95 -98 -143 -190 -182 -27
-11 -20 -12 57 -8 115 5 181 34 235 104 21 28 40 51 43 51 3 1 6 -11 5 -26 0
-23 5 -29 26 -31 20 -2 35 8 67 43 24 25 44 45 46 45 2 0 6 -9 9 -20 7 -26 56
-46 77 -31 8 6 30 18 49 27 32 15 41 13 205 -27 158 -39 181 -42 301 -41 106
0 148 5 227 26 246 65 479 224 607 415 48 70 131 239 131 265 0 26 14 19 29
-15 17 -40 81 -86 130 -94 44 -7 101 15 101 40 0 10 10 15 29 15 59 0 129 69
138 138 6 48 -1 52 -29 17 -27 -35 -70 -55 -117 -55 -144 0 -230 143 -231 381
0 223 92 409 260 522 60 41 162 77 216 77 33 0 34 -1 34 -40 0 -31 -7 -48 -26
-68 -25 -25 -26 -26 -10 -2 19 29 21 50 4 50 -24 0 -182 -174 -215 -235 -78
-148 -82 -289 -11 -370 24 -28 37 -35 67 -35 20 0 42 5 49 12 16 16 15 48 -3
68 -8 9 -22 44 -31 79 -25 101 -2 227 61 336 42 70 47 63 9 -12 -91 -176 -57
-363 81 -449 81 -51 115 -88 115 -123 0 -43 20 -39 68 13 44 48 61 101 43 134
-7 14 -8 23 -1 27 17 10 11 61 -10 88 -29 37 -55 42 -86 18 -31 -25 -64 -27
-104 -6 -94 48 -106 235 -23 373 l28 47 6 -90 c6 -92 22 -138 62 -182 78 -85
89 93 17 261 -11 27 -19 50 -17 52 1 1 29 -31 62 -71 39 -49 75 -109 102 -172
43 -100 109 -181 137 -170 7 3 46 -6 86 -19 41 -13 75 -22 77 -20 2 2 -3 29
-12 62 -8 32 -15 68 -15 81 0 12 -4 25 -10 28 -5 3 -10 14 -10 24 0 27 -36 54
-132 101 -58 28 -113 65 -165 111 -43 38 -79 74 -81 79 -2 5 34 -8 81 -30 146
-68 237 -75 237 -17 0 57 -87 98 -223 105 -54 2 -100 9 -103 13 -3 5 5 10 18
10 38 2 41 3 111 38 56 28 83 35 145 38 66 4 83 1 121 -19 25 -13 53 -35 64
-49 24 -34 26 -92 4 -117 -24 -26 -21 -49 8 -77 24 -25 78 -34 89 -16 4 5 18
5 36 -2 25 -10 34 -8 59 11 17 12 34 22 40 22 14 0 71 69 71 85 0 10 -10 15
-31 15 -34 0 -72 33 -123 109 -59 88 -177 133 -290 113 -60 -12 -176 -60 -211
-90 -14 -12 -14 -10 3 10 30 33 133 84 201 99 71 15 177 8 225 -16 44 -21 65
-14 80 27 12 34 -10 77 -54 102 -28 17 -52 21 -116 21 -75 0 -87 -3 -170 -44
-77 -38 -103 -58 -196 -152 -59 -60 -112 -109 -118 -109 -29 0 0 145 50 247
38 77 118 146 235 203 105 51 198 73 315 73 125 1 197 -21 257 -75 98 -91 109
-189 31 -274 -47 -51 -34 -58 40 -23 50 25 102 96 102 141 0 15 5 28 11 28 34
0 49 71 28 127 -13 35 -55 80 -93 100 l-30 15 70 23 c262 85 439 242 556 492
107 228 124 484 52 763 l-24 95 26 51 c29 58 29 85 -3 99 -37 16 -33 39 13 84
64 62 73 120 16 106 -22 -5 -19 1 25 49 61 66 82 122 89 231 5 81 1 81 -26 7
-24 -64 -65 -107 -134 -142 -62 -30 -106 -72 -106 -100 0 -6 -11 1 -24 17 -21
24 -26 26 -50 15 -34 -15 -66 -69 -66 -111 l0 -34 -22 21 c-13 11 -36 26 -53
32 -24 9 -31 8 -41 -4 -10 -14 -17 -14 -65 8 -30 14 -73 28 -96 32 -42 6 -43
6 -43 -20 0 -17 11 -39 29 -56 l29 -29 -77 6 c-56 4 -85 2 -112 -10 -34 -14
-38 -14 -57 5 -24 24 -54 18 -87 -18 l-22 -24 -7 30 c-7 37 -47 60 -71 40 -17
-14 -17 -15 -33 23 -6 15 -20 31 -30 35 -15 6 -17 13 -10 38 9 34 53 84 74 84
8 0 23 -5 33 -11 27 -18 70 -3 77 26 9 35 -14 83 -47 100 -58 31 -128 14 -180
-42 -54 -57 -64 -90 -64 -203 0 -98 2 -110 33 -175 18 -38 46 -84 63 -101 l29
-30 -21 -49 c-29 -67 -36 -189 -15 -278 19 -80 19 -80 7 -73 -5 3 -12 18 -16
33 -3 16 -40 105 -80 198 -88 203 -111 276 -126 397 -23 180 26 357 139 497
59 73 157 123 177 91 9 -15 61 -12 74 4 6 7 9 21 5 30 -3 9 -1 16 5 16 6 0 11
7 11 16 0 11 -6 13 -19 9 -11 -3 -22 -1 -26 5 -10 17 -32 11 -61 -15z m684
-970 c-2 -3 -24 -7 -49 -9 -31 -4 -38 -2 -24 4 21 9 82 13 73 5z m-31 -41 c-3
-3 -12 -4 -19 -1 -8 3 -5 6 6 6 11 1 17 -2 13 -5z m-242 -214 c-3 -5 -16 -10
-28 -9 -20 1 -20 2 3 9 14 4 26 8 28 9 2 1 0 -3 -3 -9z m554 -40 c0 -9 -4 -8
-9 5 -5 11 -9 27 -9 35 0 9 4 8 9 -5 5 -11 9 -27 9 -35z m-1091 -1307 c-10 -2
-26 -2 -35 0 -10 3 -2 5 17 5 19 0 27 -2 18 -5z m-169 -34 l-24 -21 24 7 c16
5 21 4 17 -4 -4 -6 -15 -11 -24 -11 -9 0 -24 -5 -32 -10 -10 -7 -3 -8 25 -5
38 5 38 4 -10 -10 -27 -8 -51 -12 -54 -10 -2 3 1 5 8 5 9 0 9 4 -1 14 -7 8
-16 12 -20 9 -5 -2 -8 -1 -8 2 0 7 100 55 114 55 5 0 -2 -10 -15 -21z m61 1
c-8 -5 -19 -10 -25 -10 -5 0 -3 5 5 10 8 5 20 10 25 10 6 0 3 -5 -5 -10z m134
-11 c14 -11 24 -25 21 -30 -4 -5 -11 -5 -18 1 -7 6 -23 19 -37 30 -19 14 -21
19 -9 20 9 0 28 -9 43 -21z m-376 -111 c-33 -25 -57 -24 -34 1 10 11 27 19 37
18 19 -1 18 -2 -3 -19z m-68 -72 c0 -2 -8 -10 -17 -17 -16 -13 -17 -12 -4 4
13 16 21 21 21 13z m-963 -68 c-3 -8 -6 -5 -6 6 -1 11 2 17 5 13 3 -3 4 -12 1
-19z m669 -209 c-15 -22 -30 -38 -33 -35 -4 3 -13 0 -22 -7 -9 -6 4 12 28 41
50 61 67 62 27 1z m508 -185 c9 -23 -24 -1 -64 43 -78 84 -82 94 -13 34 39
-34 74 -69 77 -77z m-580 115 c-3 -6 -1 -14 5 -18 17 -11 -9 -69 -28 -63 -8 3
-20 -3 -28 -14 -7 -10 -13 -14 -13 -8 0 12 59 114 66 114 3 0 2 -5 -2 -11z
m-27 -224 c0 -77 -11 -91 -23 -29 -4 22 -2 40 5 47 6 6 11 21 11 34 0 13 2 23
3 23 2 0 4 -34 4 -75z m-36 12 c-6 -6 -11 -18 -11 -27 0 -9 -7 -17 -16 -17
-11 0 -14 7 -10 21 3 12 6 29 6 39 0 15 3 16 21 6 15 -8 18 -14 10 -22z
m-1633 -802 c-6 -14 -13 -23 -15 -21 -5 5 15 46 22 46 3 0 -1 -11 -7 -25z
m1066 -16 c-10 -12 -32 -30 -49 -41 -18 -12 -12 -4 15 21 49 44 64 53 34 20z
m-1073 -163 c-4 -20 -4 -20 -12 0 -4 10 -8 30 -8 44 l-1 25 13 -25 c7 -14 11
-34 8 -44z m29 37 c0 -22 -2 -25 -10 -13 -13 20 -13 40 0 40 6 0 10 -12 10
-27z"/>
<path d="M1034 6076 c-12 -31 0 -51 31 -51 27 0 30 3 30 30 0 25 -4 30 -28 33
-17 2 -29 -2 -33 -12z"/>
<path d="M11419 6068 c-10 -18 -8 -24 11 -40 38 -31 83 15 48 50 -19 19 -46
14 -59 -10z"/>
<path d="M1052 5898 c-18 -18 -14 -46 7 -58 38 -20 71 13 51 51 -12 21 -40 25
-58 7z"/>
<path d="M11410 5895 c-26 -32 13 -81 48 -59 34 22 22 74 -18 74 -10 0 -23 -7
-30 -15z"/>
<path d="M1070 5715 c-14 -17 -5 -51 15 -59 8 -3 24 3 36 13 18 15 20 21 10
39 -13 25 -43 29 -61 7z"/>
<path d="M11398 5719 c-24 -13 -23 -46 1 -59 11 -5 22 -10 25 -10 8 0 36 31
36 40 0 10 -29 40 -38 40 -4 0 -15 -5 -24 -11z"/>
<path d="M1107 5549 c-22 -13 -22 -58 -1 -66 39 -15 73 46 37 65 -12 7 -25 7
-36 1z"/>
<path d="M6219 5497 l-56 -62 59 -65 59 -65 34 40 c20 22 44 52 55 67 l21 27
-52 58 c-29 32 -55 59 -58 60 -3 1 -31 -26 -62 -60z"/>
<path d="M11359 5534 c-17 -21 0 -48 33 -52 28 -3 42 18 33 49 -8 23 -48 25
-66 3z"/>
<path d="M6006 5504 c-105 -37 -507 -53 -1381 -55 -330 0 -625 -4 -655 -8 -30
-3 235 -10 590 -14 1018 -12 1349 -26 1453 -63 29 -10 38 -11 34 -1 -8 25 -67
48 -158 60 l-94 13 75 8 c100 10 143 22 165 46 24 27 18 30 -29 14z"/>
<path d="M6512 5509 c8 -26 91 -58 168 -66 71 -7 73 -7 35 -14 -22 -5 -56 -8
-75 -8 -39 -1 -122 -39 -128 -58 -3 -10 6 -9 37 2 104 36 406 49 1501 62 349
4 610 10 580 14 -30 4 -426 9 -880 13 -952 6 -1100 14 -1224 62 -14 5 -18 3
-14 -7z"/>
<path d="M6086 5454 c-19 -19 -20 -26 -4 -42 18 -18 46 -15 57 7 8 14 6 22 -8
35 -22 20 -26 20 -45 0z"/>
<path d="M6424 5456 c-15 -12 -17 -18 -8 -33 15 -24 58 -24 62 0 4 18 -14 47
-27 47 -4 0 -16 -6 -27 -14z"/>
<path d="M1136 5377 c-36 -26 4 -84 42 -61 23 15 22 44 -4 60 -17 12 -23 12
-38 1z"/>
<path d="M11331 5366 c-7 -8 -10 -24 -6 -35 9 -29 36 -35 59 -11 16 16 18 24
10 38 -14 22 -48 27 -63 8z"/>
<path d="M2814 5255 c-33 -50 20 -104 71 -71 27 18 34 63 13 84 -21 21 -66 14
-84 -13z"/>
<path d="M9625 5260 c-22 -24 -14 -65 16 -81 52 -27 106 29 74 77 -19 30 -65
32 -90 4z"/>
<path d="M1164 5196 c-11 -28 1 -51 28 -54 31 -4 48 29 28 53 -16 19 -49 19
-56 1z"/>
<path d="M11303 5203 c-19 -7 -16 -51 4 -62 37 -20 71 27 41 57 -13 13 -24 14
-45 5z"/>
<path d="M4792 5050 c-86 -20 -142 -89 -150 -186 -8 -91 29 -162 102 -195 83
-38 178 -16 224 51 34 51 26 57 -17 12 -113 -116 -256 -22 -238 154 10 96 56
149 128 148 45 -2 76 -22 106 -72 l23 -37 0 58 c0 42 -4 57 -12 55 -7 -3 -37
1 -68 9 -30 7 -57 12 -60 12 -3 -1 -20 -5 -38 -9z"/>
<path d="M5360 5031 c-123 -66 -133 -272 -17 -349 34 -23 52 -27 107 -27 83 0
137 31 169 97 23 49 28 137 10 185 -14 38 -57 83 -96 99 -46 20 -131 17 -173
-5z m159 -27 c36 -30 51 -77 51 -159 0 -62 -23 -129 -53 -153 -9 -8 -33 -16
-55 -19 -31 -4 -44 0 -69 21 -73 62 -81 240 -13 308 38 38 96 39 139 2z"/>
<path d="M6035 5035 c-59 -32 -95 -82 -108 -153 -16 -81 38 -189 109 -218 76
-32 188 -3 218 55 25 47 19 48 -23 7 -100 -97 -232 -25 -233 127 -1 110 46
177 125 177 48 0 75 -19 106 -70 l21 -35 0 60 0 60 -93 3 c-70 2 -99 -1 -122
-13z"/>
<path d="M6530 5041 c0 -5 9 -11 20 -14 19 -5 20 -14 20 -170 0 -160 -1 -166
-22 -181 -12 -9 -20 -16 -18 -17 34 -3 140 -3 140 1 0 3 -9 11 -20 18 -19 11
-20 23 -20 172 0 149 1 161 20 172 34 22 23 28 -50 28 -38 0 -70 -4 -70 -9z"/>
<path d="M6940 5042 c0 -4 9 -13 20 -20 19 -11 20 -23 20 -172 0 -149 -1 -161
-20 -172 -31 -19 -25 -24 35 -24 30 -1 55 3 55 8 0 4 -7 8 -15 8 -27 0 -36 49
-33 177 l3 125 128 -161 c71 -89 133 -158 139 -155 6 4 8 73 7 178 -2 94 0
177 4 184 5 6 15 12 23 12 8 0 14 5 14 10 0 6 -25 10 -55 10 -30 0 -55 -3 -55
-6 0 -3 9 -13 20 -22 19 -16 21 -26 18 -132 l-3 -115 -109 138 -110 137 -43 0
c-24 0 -43 -3 -43 -8z"/>
<path d="M7733 5033 c-37 -101 -147 -350 -158 -359 -25 -19 -17 -24 35 -24 48
0 66 12 35 24 -19 7 -19 37 0 82 l14 35 68 -3 67 -3 19 -50 c16 -44 17 -50 3
-61 -9 -6 -16 -13 -16 -16 0 -2 32 -5 70 -5 72 -1 83 4 51 24 -11 7 -48 87
-91 192 -40 100 -76 181 -81 181 -5 0 -13 -8 -16 -17z m25 -145 c12 -35 22
-66 22 -70 0 -5 -25 -8 -55 -8 -30 0 -55 2 -55 5 0 13 53 135 59 135 3 0 16
-28 29 -62z"/>
<path d="M6265 4340 c-9 -18 -15 -46 -13 -61 l5 -29 -23 21 c-27 26 -77 23
-82 -5 -3 -15 0 -18 20 -13 53 14 104 -57 94 -128 -14 -92 -94 -173 -181 -183
-108 -12 -197 106 -150 198 33 65 109 80 165 34 57 -48 45 -15 -16 45 -78 75
-157 104 -284 104 -98 0 -164 -20 -301 -89 -99 -49 -125 -53 -163 -23 -45 36
-29 104 20 85 13 -5 14 -9 4 -21 -10 -12 -9 -16 3 -21 22 -8 37 3 37 30 0 52
-73 65 -109 20 -25 -31 -26 -55 -7 -93 37 -71 159 -67 267 10 30 21 41 12 13
-12 -67 -55 -53 -176 25 -208 60 -26 126 7 157 77 l12 27 1 -32 c1 -19 10 -40
23 -53 27 -25 53 -27 44 -3 -4 9 -1 20 5 24 6 4 8 12 5 18 -10 16 -36 13 -36
-4 0 -8 -4 -15 -10 -15 -17 0 -11 83 9 116 10 17 36 42 57 55 33 20 51 24 112
23 40 -1 77 -5 83 -11 6 -6 -1 -8 -21 -5 -92 13 -171 -90 -142 -186 8 -26 8
-39 0 -49 -26 -32 54 -91 139 -101 65 -7 165 45 205 107 35 54 29 19 -8 -45
-26 -46 -87 -104 -109 -104 -8 0 -24 -9 -36 -21 -16 -16 -18 -23 -8 -35 20
-24 57 -16 100 23 51 46 75 92 98 190 l18 78 7 -40 c15 -86 51 -168 95 -217
37 -41 49 -49 75 -46 44 4 47 33 5 56 -72 39 -134 111 -154 182 -5 16 5 6 26
-25 74 -109 217 -136 309 -59 29 25 41 64 20 64 -7 0 -7 6 0 19 17 33 12 113
-10 149 -22 35 -71 61 -117 63 l-28 1 25 8 c67 21 156 3 201 -42 39 -39 56
-99 39 -136 -12 -27 -12 -27 -21 -4 -13 33 -27 27 -26 -13 1 -19 6 -35 11 -35
30 1 72 60 62 86 -3 9 -1 12 4 9 6 -3 10 -12 10 -19 0 -26 42 -66 80 -77 75
-23 140 28 140 108 0 50 -11 75 -49 116 -23 26 -19 24 48 -14 58 -34 86 -44
132 -47 54 -4 60 -2 89 26 55 55 31 142 -39 142 -36 0 -63 -25 -59 -54 4 -28
43 -29 43 -1 0 30 33 31 46 1 10 -20 9 -30 -5 -50 -32 -49 -86 -44 -201 20
-77 42 -131 61 -211 74 -123 20 -272 -21 -349 -95 -49 -48 -62 -80 -19 -46 17
13 41 21 65 21 90 0 140 -111 87 -190 -90 -133 -285 -60 -314 117 -10 67 31
127 86 125 35 -1 41 22 11 38 -24 12 -65 -1 -80 -27 -8 -14 -9 -11 -5 17 3 25
-1 44 -15 64 l-19 29 -17 -33z m-565 -70 c-54 -28 -91 -73 -92 -109 -1 -41 25
-70 50 -55 23 15 23 49 0 48 -60 -5 33 95 108 117 60 17 158 16 202 -2 33 -14
32 -14 -35 -14 -105 -1 -164 -41 -209 -142 -36 -81 -85 -103 -138 -62 -21 17
-26 29 -26 65 0 72 38 127 110 158 50 22 72 19 30 -4z m1122 -9 c67 -28 128
-111 82 -111 -25 0 -13 -44 13 -48 27 -4 47 30 39 63 -8 33 -52 82 -95 106
l-36 20 35 -6 c115 -19 190 -168 117 -231 -54 -47 -96 -28 -138 61 -48 102
-129 153 -228 143 -49 -4 -41 8 14 21 54 14 142 6 197 -18z"/>
<path d="M6170 4195 c-15 -18 -6 -45 14 -45 10 0 13 6 9 16 -4 12 -2 15 8 12
18 -6 24 -51 10 -76 -6 -11 -27 -27 -47 -37 -30 -14 -41 -15 -62 -5 -19 8 -22
14 -13 19 20 13 9 46 -17 49 -31 5 -52 -15 -52 -48 0 -59 78 -87 148 -51 52
27 77 63 77 114 0 55 -46 87 -75 52z"/>
<path d="M6342 4194 c-51 -36 -13 -138 65 -170 49 -21 79 -17 115 15 29 26 32
32 23 57 -12 34 -54 44 -75 18 -12 -14 -12 -18 5 -30 17 -13 18 -16 5 -25 -24
-16 -81 -2 -112 27 -35 34 -41 94 -8 94 13 0 18 -5 14 -15 -4 -9 0 -15 9 -15
20 0 30 29 16 46 -15 18 -29 18 -57 -2z"/>
<path d="M6265 3923 c-19 -66 -47 -124 -81 -169 -44 -57 -18 -91 30 -39 22 24
59 136 69 210 l4 30 2 -29 c4 -80 56 -218 86 -230 42 -16 47 9 11 57 -34 45
-61 103 -80 170 -9 31 -18 57 -21 57 -2 0 -11 -26 -20 -57z"/>
<path d="M6261 3771 c-20 -78 -22 -99 -12 -131 17 -57 36 -68 58 -34 23 36 22
118 -4 199 l-19 59 -23 -93z"/>
<path d="M2422 3550 c-51 -23 -78 -73 -62 -115 13 -35 34 -40 78 -19 51 25
163 30 240 10 87 -22 146 -52 200 -103 l47 -44 -68 47 c-122 83 -230 109 -332
79 -83 -24 -129 -59 -179 -135 -45 -67 -89 -99 -121 -86 -9 3 -15 0 -15 -9 0
-20 47 -73 73 -81 12 -3 30 -15 40 -25 20 -21 67 -25 84 -8 8 8 13 8 17 0 14
-23 64 -12 90 20 31 37 32 50 6 74 -44 40 -8 123 70 163 64 33 165 27 252 -16
35 -17 81 -34 103 -38 l39 -7 -41 49 c-180 215 -380 308 -521 244z m136 -17
c-10 -2 -26 -2 -35 0 -10 3 -2 5 17 5 19 0 27 -2 18 -5z m27 -33 c8 -13 -35
-13 -55 0 -11 7 -7 10 17 10 17 0 35 -4 38 -10z m184 -54 c25 -19 57 -46 71
-61 l25 -28 -42 24 c-23 13 -39 27 -37 31 7 10 -57 48 -69 41 -5 -3 -3 -9 4
-14 19 -12 -8 -11 -36 1 -19 8 -19 9 -1 9 20 1 20 1 0 16 -10 8 -15 15 -10 15
6 0 1 7 -10 15 -40 32 56 -14 105 -49z"/>
<path d="M5082 3064 c-33 -23 -27 -75 10 -88 55 -19 93 55 46 88 -28 20 -28
20 -56 0z"/>
<path d="M7362 3064 c-41 -28 -16 -94 36 -94 21 0 52 34 52 57 0 17 -36 53
-53 53 -7 0 -23 -7 -35 -16z"/>
<path d="M6122 2925 c-72 -16 -141 -52 -171 -91 -25 -32 -26 -47 -5 -68 23
-23 58 -3 51 30 -10 53 96 103 234 111 161 10 294 -43 294 -116 0 -21 5 -27
28 -29 24 -3 27 0 27 28 0 106 -250 180 -458 135z"/>
<path d="M6233 2822 c-12 -21 -46 -70 -76 -110 -29 -39 -75 -112 -102 -162
-43 -81 -54 -94 -105 -125 -40 -24 -93 -43 -171 -62 -114 -27 -159 -52 -159
-86 0 -8 21 -25 48 -38 33 -17 52 -35 66 -62 17 -37 17 -40 1 -83 -21 -55 -75
-97 -146 -114 -28 -7 -53 -18 -56 -26 -7 -20 34 -81 68 -101 26 -16 28 -21 22
-53 -9 -44 -6 -95 8 -137 20 -61 112 -123 185 -123 17 0 22 -8 27 -42 10 -78
69 -131 146 -132 48 -1 50 -2 70 -43 20 -42 190 -235 202 -231 21 8 174 188
195 230 22 43 27 47 53 42 42 -9 116 27 141 68 11 18 20 50 20 71 0 32 3 37
23 37 120 0 204 100 195 230 l-4 61 49 49 c62 62 60 79 -16 101 -140 42 -198
156 -118 233 15 15 41 30 57 35 22 5 29 13 29 31 0 33 -51 66 -123 80 -181 36
-235 70 -298 189 -26 49 -66 112 -88 140 -23 28 -58 78 -77 111 -18 33 -36 60
-39 60 -3 0 -15 -17 -27 -38z m75 -180 c27 -37 67 -97 87 -132 48 -83 88 -126
147 -156 56 -28 148 -54 195 -54 40 0 41 -6 7 -33 -30 -23 -63 -90 -64 -127 0
-80 62 -169 144 -205 l50 -22 -51 -30 c-40 -22 -50 -32 -42 -43 14 -23 11
-108 -6 -140 -31 -61 -114 -92 -189 -72 -34 10 -37 9 -30 -6 4 -9 9 -36 12
-59 3 -37 0 -47 -27 -74 -29 -29 -36 -31 -80 -27 l-49 5 -6 -37 c-6 -41 -42
-97 -103 -164 l-43 -45 -52 55 c-63 66 -96 117 -104 161 -6 29 -8 31 -39 26
-76 -12 -125 23 -125 88 0 22 5 49 11 61 10 19 9 20 -39 13 -65 -9 -121 7
-157 45 -23 24 -30 41 -33 89 -2 32 0 67 6 77 9 16 3 23 -41 48 l-51 29 49 22
c80 36 145 120 145 187 0 47 -23 103 -55 135 -18 18 -30 35 -27 38 3 3 21 5
41 5 78 0 199 47 254 99 16 14 47 58 69 96 36 61 138 215 143 215 1 0 25 -30
53 -68z"/>
<path d="M6250 2628 c0 -40 -8 -65 -37 -117 -31 -55 -37 -76 -37 -127 -1 -59
-2 -61 -21 -48 -28 20 -42 17 -70 -11 -32 -31 -32 -69 0 -101 22 -22 28 -24
41 -13 13 10 17 10 25 -2 17 -27 9 -57 -22 -83 -32 -27 -42 -30 -74 -17 -24
10 -45 -4 -45 -29 0 -11 -12 -20 -31 -26 -18 -5 -37 -17 -43 -27 -27 -45 87
-77 152 -43 64 34 118 114 129 192 7 53 23 41 23 -18 0 -37 -67 -183 -83 -179
-4 1 -34 -12 -66 -29 -52 -26 -68 -29 -139 -27 -77 2 -82 1 -111 -27 -40 -38
-39 -52 4 -60 19 -4 35 -11 35 -16 0 -5 -6 -7 -14 -4 -8 3 -17 1 -20 -5 -11
-16 34 -34 88 -34 57 -1 104 20 153 66 l32 30 -15 -49 c-21 -67 -14 -147 15
-178 l23 -24 -21 -7 c-12 -3 -21 -13 -21 -21 0 -19 34 -18 50 1 11 13 16 8 36
-32 13 -27 31 -59 40 -73 l16 -25 -20 23 c-19 21 -21 21 -31 5 -8 -16 -10 -15
-15 7 -3 14 -7 39 -9 55 -3 26 -4 25 -6 -8 -1 -39 17 -81 68 -162 l28 -44 32
62 c18 34 39 73 46 87 8 14 15 41 14 60 0 35 0 35 -13 11 -7 -13 -11 -32 -9
-41 7 -27 -15 -64 -31 -51 -7 6 -16 8 -19 4 -17 -16 -5 12 17 40 14 18 34 53
45 77 15 32 21 39 21 23 0 -22 32 -48 44 -36 12 12 6 33 -9 33 -20 0 -19 9 2
32 25 28 30 142 8 193 l-16 40 33 -32 c49 -47 122 -77 171 -69 51 9 80 24 73
41 -2 7 4 15 15 18 19 5 25 33 11 52 -14 21 -62 45 -87 45 -14 0 -47 -5 -72
-11 -32 -9 -47 -9 -52 -1 -3 6 -29 20 -56 32 l-50 21 30 -32 30 -32 -33 22
c-79 55 -143 188 -127 263 7 31 8 29 24 -32 18 -73 46 -117 97 -156 57 -44
162 -46 184 -3 15 27 -1 46 -46 55 -23 4 -34 12 -34 23 0 29 -20 41 -48 30
-62 -24 -127 47 -93 100 8 12 12 12 25 2 22 -18 52 2 66 45 11 32 10 39 -7 63
-24 31 -56 38 -86 18 -22 -14 -22 -14 -19 43 3 49 -1 67 -32 128 -27 54 -36
84 -36 122 0 27 -4 50 -10 50 -5 0 -10 -23 -10 -52z m53 -873 c1 -65 -3 -90
-23 -134 l-24 -55 -25 55 c-33 72 -33 153 -1 291 l25 107 23 -92 c14 -54 24
-125 25 -172z"/>
<path d="M6247 1926 c-9 -64 -8 -206 2 -231 7 -17 9 -15 16 15 10 44 8 195 -3
235 -8 29 -9 28 -15 -19z"/>
<path d="M5931 2444 c0 -11 3 -14 6 -6 3 7 2 16 -1 19 -3 4 -6 -2 -5 -13z"/>
<path d="M5002 1338 c-35 -35 10 -81 48 -50 19 16 21 22 11 40 -13 24 -40 29
-59 10z"/>
<path d="M7462 1338 c-19 -19 -14 -56 8 -63 24 -8 50 10 50 34 0 19 -19 41
-35 41 -6 0 -16 -5 -23 -12z"/>
<path d="M5885 1305 c17 -8 44 -14 60 -14 22 1 15 4 -25 14 -68 17 -73 17 -35
0z"/>
<path d="M6580 1311 c-45 -5 -50 -7 -30 -13 36 -11 61 -9 95 7 33 15 26 16
-65 6z"/>
<path d="M5183 1303 c-18 -7 -16 -48 3 -64 31 -26 70 25 44 56 -13 15 -25 17
-47 8z"/>
<path d="M7285 1297 c-10 -8 -16 -23 -13 -38 2 -19 9 -24 33 -24 25 0 31 4 33
27 4 34 -26 54 -53 35z"/>
<path d="M5354 1259 c-24 -27 -8 -54 32 -54 23 0 30 5 32 24 3 15 -3 30 -14
38 -24 17 -28 17 -50 -8z"/>
<path d="M7108 1269 c-24 -13 -23 -56 0 -68 14 -7 25 -6 40 5 27 19 28 36 4
57 -21 20 -21 20 -44 6z"/>
<path d="M5536 1237 c-36 -26 4 -84 42 -61 23 15 26 38 7 58 -20 19 -26 20
-49 3z"/>
<path d="M6919 1224 c-9 -11 -10 -20 -2 -32 25 -41 86 -14 63 27 -13 25 -42
27 -61 5z"/>
<path d="M5704 1206 c-10 -27 1 -51 26 -54 31 -5 53 23 39 49 -12 22 -57 25
-65 5z"/>
<path d="M6747 1214 c-14 -14 -7 -53 12 -63 26 -14 54 8 49 40 -2 17 -10 25
-28 27 -14 2 -29 0 -33 -4z"/>
<path d="M5896 1197 c-36 -26 4 -84 42 -61 23 15 26 38 7 58 -20 19 -26 20
-49 3z"/>
<path d="M6578 1203 c-22 -5 -33 -40 -18 -58 27 -32 78 -5 65 34 -7 21 -22 29
-47 24z"/>
</g>
</svg>
